<svg width="360" height="348" viewBox="0 0 360 348" fill="none" xmlns="http://www.w3.org/2000/svg">
<g clip-path="url(#clip0_119_622)">
<path d="M13.8417 205.233C13.8417 205.233 20.9113 202.908 24.3004 219.225C27.6895 235.542 28.1986 244.559 28.1986 244.559C28.1986 244.559 29.3089 248.089 31.9036 246.688C34.5014 245.289 38.8444 240.498 42.0771 242.455C45.4263 244.489 45.5153 248.871 43.1966 254.641C40.8748 260.41 36.2527 273.239 35.8417 274.402C35.4338 275.543 35.6332 277.438 37.5562 276.769C39.4762 276.101 51.6187 268.277 54.9894 274.261C58.3571 280.244 49.2509 295.258 48.2879 296.917C47.3218 298.576 47.4659 299.438 48.1928 300.113C48.9228 300.788 52.7566 297.773 56.3021 295.69C59.8446 293.605 64.3225 291.807 65.9757 295.423C67.6288 299.039 65.0801 311.473 48.0303 328.146L39.6234 335.353L29.0727 331.836C6.95303 322.926 -0.147226 312.403 0.00306015 308.431C0.153347 304.456 4.97478 304.41 9.04784 304.983C13.1178 305.56 17.8135 306.885 18.2306 305.983C18.6447 305.082 18.4484 304.232 16.9241 303.063C15.3997 301.895 1.25749 291.491 2.08867 284.673C2.73275 279.383 11.4371 279.766 16.2524 280.152C17.6418 280.263 18.706 280.373 19.16 280.349C21.1934 280.232 20.6536 278.401 19.8439 277.502C19.0189 276.585 9.85448 266.489 5.50844 262.041C1.16241 257.591 -0.426329 253.506 1.89544 250.35C4.1344 247.307 9.97716 250.083 12.9123 250.383C15.8445 250.687 15.5255 247 15.5255 247C15.5255 247 12.5596 238.474 9.46803 222.096C6.37642 205.721 13.9889 205.196 13.9889 205.196L13.8417 205.233Z" fill="#F6F7F8"/>
<path d="M39.6817 333.026C37.3691 321.009 34.0291 304.431 30.2781 286.133C26.5301 267.838 23.1502 251.273 20.7702 239.268C19.5863 233.278 18.6293 228.423 17.9607 225.049C17.6325 223.384 17.3718 222.084 17.194 221.182C17.105 220.756 17.0345 220.421 16.9854 220.179C16.9363 219.955 16.9026 219.839 16.9026 219.839C16.9026 219.839 16.9087 219.958 16.9455 220.185C16.9885 220.43 17.0467 220.768 17.1173 221.197C17.2829 222.102 17.516 223.406 17.8166 225.077C18.4269 228.445 19.347 233.312 20.5064 239.321C22.819 251.337 26.159 267.915 29.907 286.207C33.658 304.508 37.0379 321.073 39.4179 333.078" fill="#E1E1E1"/>
<path d="M36.2711 249.405C36.2466 249.393 36.0809 249.623 35.7957 250.055C35.5105 250.482 35.1179 251.113 34.6394 251.902C33.6856 253.475 32.4281 255.683 31.0847 258.146C29.775 260.575 28.5912 262.771 27.6741 264.467C27.2662 265.219 26.9196 265.857 26.6344 266.378C26.3859 266.829 26.2602 267.084 26.2817 267.099C26.3031 267.111 26.4718 266.881 26.7601 266.455C27.0454 266.026 27.4379 265.394 27.9072 264.599C28.8457 263.017 30.0756 260.793 31.419 258.33C32.744 255.913 33.9432 253.727 34.8725 252.034C35.2835 251.288 35.6362 250.65 35.9245 250.129C36.1668 249.675 36.2926 249.42 36.2711 249.405Z" fill="#E1E1E1"/>
<path d="M25.248 267.019C25.3032 266.933 20.8652 264.133 15.3383 260.769C9.8084 257.407 5.28448 254.754 5.22927 254.843C5.17406 254.932 9.61211 257.729 15.142 261.094C20.6689 264.455 25.1959 267.111 25.248 267.019Z" fill="#E1E1E1"/>
<path d="M32.2717 294.859C32.2778 294.834 32.0018 294.742 31.4957 294.598C30.9099 294.442 30.1953 294.246 29.3519 294.019C27.5423 293.525 25.0457 292.832 22.3191 291.973C19.5894 291.12 17.1419 290.261 15.3783 289.63C14.5533 289.335 13.857 289.087 13.2835 288.884C12.7897 288.709 12.5106 288.627 12.5014 288.651C12.4891 288.673 12.7498 288.805 13.2314 289.019C13.7098 289.234 14.4091 289.535 15.2832 289.881C17.0284 290.58 19.4667 291.479 22.2056 292.335C24.9414 293.2 27.4564 293.85 29.2874 294.276C30.2014 294.488 30.9437 294.647 31.462 294.745C31.9773 294.844 32.2656 294.883 32.2717 294.859Z" fill="#E1E1E1"/>
<path d="M45.7483 281.119C45.7299 281.103 45.5213 281.272 45.1625 281.597C44.8006 281.925 44.2884 282.404 43.6627 283.005C42.4082 284.201 40.6938 285.876 38.8167 287.74C36.9397 289.608 35.2558 291.31 34.0474 292.559C33.4463 293.181 32.9617 293.69 32.6335 294.049C32.3053 294.408 32.1336 294.614 32.152 294.632C32.1704 294.65 32.3789 294.479 32.7378 294.154C33.0966 293.828 33.6088 293.347 34.2376 292.749C35.492 291.55 37.2065 289.875 39.0835 288.01C40.9606 286.145 42.6444 284.44 43.8528 283.195C44.454 282.572 44.9386 282.06 45.2668 281.704C45.5949 281.345 45.7667 281.137 45.7483 281.119Z" fill="#E1E1E1"/>
<path d="M55.0722 304.907C55.0538 304.888 54.7901 305.112 54.33 305.529C53.8178 306.005 53.1737 306.606 52.4008 307.324C50.7845 308.851 48.5731 310.979 46.144 313.347C43.7149 315.715 41.5311 317.874 39.9639 319.451C39.2247 320.202 38.6082 320.834 38.1206 321.331C37.6912 321.782 37.4611 322.039 37.4795 322.058C37.4979 322.076 37.7617 321.855 38.2218 321.438C38.734 320.963 39.3781 320.362 40.151 319.644C41.7642 318.117 43.9787 315.988 46.4078 313.62C48.8369 311.249 51.0206 309.09 52.5879 307.514C53.3271 306.762 53.9436 306.13 54.4312 305.634C54.8606 305.183 55.0906 304.925 55.0722 304.907Z" fill="#E1E1E1"/>
<path d="M37.7863 321.53C37.7925 321.506 37.4459 321.38 36.8079 321.181C36.1056 320.96 35.2008 320.681 34.1181 320.343C31.8423 319.638 28.7078 318.65 25.2758 317.466C21.8437 316.286 18.7613 315.138 16.5377 314.295C15.4765 313.893 14.5901 313.559 13.9 313.298C13.2743 313.065 12.9247 312.949 12.9155 312.973C12.9063 312.998 13.2344 313.16 13.8448 313.433C14.4521 313.709 15.3354 314.089 16.4365 314.543C18.6417 315.454 21.7118 316.641 25.1531 317.825C28.5913 319.012 31.7473 319.96 34.0414 320.601C35.1885 320.92 36.1209 321.165 36.7681 321.322C37.4183 321.478 37.7771 321.555 37.7863 321.53Z" fill="#E1E1E1"/>
<path d="M335.488 123.578H261.973V17.0253H335.488V123.578Z" fill="#E1E1E1"/>
<path d="M331.804 123.578H258.293V17.0253H331.804V123.578Z" fill="#F6F7F8"/>
<path d="M322.671 112.04H267.427V28.5667H322.671V112.04Z" fill="white"/>
<path d="M322.671 112.04C322.671 112.04 322.664 111.899 322.661 111.632C322.658 111.356 322.655 110.96 322.649 110.445C322.646 109.396 322.637 107.863 322.628 105.869C322.615 101.866 322.6 96.0391 322.579 88.672C322.557 73.9531 322.523 53.1124 322.487 28.5667L322.671 28.7476C305.792 28.7537 287.09 28.7599 267.433 28.766H267.427L267.626 28.5667C267.608 60.0562 267.595 89.0891 267.586 112.04L267.427 111.88C284.249 111.914 298.042 111.942 307.636 111.963C312.439 111.982 316.187 111.994 318.748 112.003C320.018 112.012 320.996 112.018 321.661 112.022C322.324 112.028 322.671 112.04 322.671 112.04C322.671 112.04 322.345 112.049 321.695 112.055C321.033 112.061 320.07 112.064 318.809 112.074C316.257 112.083 312.522 112.098 307.737 112.114C298.116 112.135 284.289 112.163 267.427 112.199H267.267V112.04C267.255 89.0891 267.239 60.0562 267.224 28.5667V28.3673H267.433C287.09 28.3734 305.792 28.3765 322.671 28.3826H322.855V28.5667C322.818 53.1615 322.787 74.0451 322.763 88.7946C322.744 96.1403 322.726 101.955 322.717 105.946C322.704 107.924 322.698 109.448 322.692 110.488C322.689 110.994 322.686 111.381 322.683 111.65C322.68 111.911 322.671 112.04 322.671 112.04Z" fill="#E1E1E1"/>
<path d="M332.01 17.0253C332.053 17.059 331.556 17.7859 330.7 18.9299C329.848 20.0709 328.636 21.6259 327.25 23.3036C325.867 24.9843 324.575 26.4719 323.618 27.5269C322.662 28.5851 322.042 29.2138 322.002 29.1801C321.959 29.1402 322.502 28.447 323.404 27.3429C324.388 26.1467 325.603 24.6776 326.943 23.049C328.283 21.4235 329.495 19.9513 330.479 18.7551C331.39 17.6571 331.967 16.9915 332.01 17.0253Z" fill="#E1E1E1"/>
<path d="M322.953 111.77C325.698 116.134 328.937 120.183 332.59 123.821L322.953 111.77Z" fill="white"/>
<path d="M332.59 123.821C332.553 123.857 331.896 123.287 330.909 122.293C329.921 121.296 328.612 119.864 327.274 118.192C325.937 116.518 324.827 114.926 324.072 113.745C323.318 112.561 322.91 111.798 322.953 111.77C323.002 111.739 323.499 112.451 324.308 113.586C325.118 114.724 326.256 116.279 327.587 117.944C328.915 119.603 330.185 121.057 331.114 122.1C332.047 123.14 332.629 123.778 332.59 123.821Z" fill="#E1E1E1"/>
<path d="M258.281 123.495C261.492 119.536 264.7 115.573 267.911 111.614L258.281 123.495Z" fill="white"/>
<path d="M267.911 111.614C267.997 111.684 265.908 114.402 263.252 117.68C260.593 120.962 258.367 123.563 258.281 123.495C258.195 123.425 260.28 120.711 262.94 117.429C265.599 114.15 267.825 111.546 267.911 111.614Z" fill="#E1E1E1"/>
<path d="M258.293 17.0253C258.379 16.9578 260.471 19.4575 262.964 22.6135C265.461 25.7664 267.411 28.3796 267.325 28.447C267.24 28.5176 265.148 26.0149 262.651 22.8589C260.158 19.7059 258.204 17.0928 258.293 17.0253Z" fill="#E1E1E1"/>
<path d="M305.458 98.0357H286.961V45.5153H305.458V98.0357Z" fill="#E1E1E1"/>
<path d="M104.719 0.00306702V58.7129H20.3928L17.3564 0.414054L104.719 0.00306702Z" fill="#E1E1E1"/>
<path d="M101.682 0.414047V58.5902H17.3564V0.414047H101.682Z" fill="white"/>
<path d="M17.7551 58.1884H101.281V0.812772H17.7551V58.1884ZM102.081 58.9889H16.9546V0.0122681H102.081V58.9889Z" fill="#E1E1E1"/>
<path d="M92.5487 7.64006V51.3611H26.4902V7.64006H92.5487Z" fill="white"/>
<path d="M92.5485 7.64006C92.5485 7.64006 92.4351 7.64926 92.2204 7.65233C91.9995 7.6554 91.6867 7.65847 91.2818 7.6646C90.4445 7.66767 89.23 7.67687 87.6535 7.68607C84.4822 7.69834 79.8693 7.71674 74.0419 7.73821C62.3931 7.76275 45.9046 7.79342 26.4901 7.83329L26.6802 7.64006C26.6863 20.9971 26.6925 35.7988 26.6986 51.355V51.3611L26.4901 51.1525C51.4069 51.1709 74.3823 51.1832 92.5485 51.1955L92.3798 51.3611C92.4166 38.0562 92.4473 27.1466 92.4688 19.5526C92.4872 15.7555 92.5025 12.7866 92.5117 10.7531C92.5209 9.75021 92.5271 8.9773 92.5301 8.44363C92.5363 7.91917 92.5485 7.64006 92.5485 7.64006C92.5485 7.64006 92.5608 7.89463 92.5669 8.4099C92.57 8.93743 92.5761 9.69807 92.5823 10.6887C92.5945 12.713 92.6068 15.6666 92.6252 19.4483C92.6467 27.0699 92.6774 38.0132 92.7142 51.3611V51.5267H92.5485C74.3823 51.539 51.4069 51.5543 26.4901 51.5697H26.2815V51.355C26.2876 35.7988 26.2938 20.9971 26.2968 7.64006V7.44991H26.4901C45.9537 7.48671 62.4882 7.52045 74.1676 7.54498C79.9736 7.56645 84.5742 7.58179 87.7363 7.59712C89.2974 7.60633 90.4997 7.61246 91.3278 7.61859C91.7204 7.62473 92.0241 7.6278 92.2449 7.63086C92.4473 7.63393 92.5485 7.64006 92.5485 7.64006Z" fill="#E1E1E1"/>
<path d="M17.3564 0.248432C17.3902 0.205494 17.9422 0.567407 18.8072 1.19002C19.669 1.81264 20.8437 2.69595 22.1104 3.71115C23.3801 4.72635 24.4966 5.68634 25.2817 6.40404C26.0669 7.1248 26.527 7.59712 26.4902 7.64006C26.4104 7.72901 24.3831 6.05746 21.8527 4.03626C19.3163 2.01506 17.2828 0.343512 17.3564 0.248432Z" fill="#E1E1E1"/>
<path d="M101.682 0.41406C101.753 0.503005 99.7654 2.19603 97.2443 4.18962C94.7201 6.18628 92.6192 7.73208 92.5486 7.64007C92.475 7.55112 94.4625 5.86117 96.9836 3.86451C99.5078 1.86785 101.609 0.322048 101.682 0.41406Z" fill="#E1E1E1"/>
<path d="M101.615 58.5994C98.4803 56.0568 95.3457 53.5173 92.2112 50.9777L101.615 58.5994Z" fill="white"/>
<path d="M92.2112 50.9777C92.2849 50.8888 94.4471 52.5204 97.0449 54.6245C99.6397 56.7315 101.685 58.5074 101.615 58.5994C101.541 58.6883 99.379 57.0536 96.7812 54.9496C94.1864 52.8456 92.1407 51.0667 92.2112 50.9777Z" fill="#E1E1E1"/>
<path d="M17.3563 58.5902C17.2858 58.4982 19.2518 56.8266 21.7453 54.8514C24.2419 52.8762 26.3244 51.3488 26.395 51.4408C26.4686 51.5298 24.5026 53.2044 22.006 55.1796C19.5094 57.1517 17.4269 58.6791 17.3563 58.5902Z" fill="#E1E1E1"/>
<path d="M81.4672 21.2609V35.9031H39.9023V21.2609H81.4672Z" fill="#E1E1E1"/>
<path d="M302.026 194.94C290.178 206.171 271.444 205.647 260.188 193.771C248.932 181.895 249.411 163.165 261.262 151.933C273.11 140.702 291.84 141.226 303.1 153.102C314.356 164.978 313.874 183.711 302.026 194.94Z" fill="#ECECEC"/>
<path d="M297.177 189.824C288.148 198.384 273.874 197.985 265.295 188.934C256.713 179.883 257.081 165.609 266.111 157.049C275.14 148.492 289.414 148.891 297.993 157.939C306.572 166.993 306.207 181.267 297.177 189.824Z" fill="#F6F7F8"/>
<path d="M297.686 189.333C297.588 189.238 298.242 188.487 299.244 187.033C300.238 185.579 301.572 183.374 302.477 180.38C302.928 178.89 303.265 177.212 303.397 175.39C303.514 173.568 303.443 171.609 303.048 169.6C302.854 168.597 302.597 167.578 302.241 166.569C301.891 165.56 301.474 164.545 300.953 163.567C300.434 162.585 299.855 161.613 299.168 160.693C298.484 159.77 297.726 158.886 296.895 158.052C296.052 157.227 295.159 156.476 294.233 155.801C293.307 155.123 292.328 154.553 291.344 154.04C290.356 153.528 289.341 153.123 288.326 152.783C287.317 152.436 286.295 152.188 285.289 152.004C283.277 151.627 281.314 151.574 279.496 151.706C277.677 151.854 275.999 152.212 274.512 152.672C271.53 153.608 269.338 154.96 267.893 155.966C266.451 156.985 265.706 157.647 265.608 157.549C265.534 157.479 266.12 156.654 267.476 155.439C268.831 154.24 271.018 152.657 274.116 151.516C275.662 150.952 277.422 150.501 279.355 150.28C281.287 150.075 283.388 150.075 285.553 150.433C286.636 150.608 287.74 150.857 288.835 151.213C289.93 151.562 291.028 151.985 292.098 152.528C293.169 153.065 294.227 153.678 295.233 154.402C296.236 155.126 297.202 155.936 298.11 156.825C299.008 157.724 299.824 158.681 300.554 159.678C301.29 160.677 301.913 161.73 302.459 162.794C303.011 163.858 303.446 164.956 303.805 166.048C304.173 167.14 304.431 168.238 304.615 169.32C304.992 171.483 305.017 173.584 304.827 175.516C304.624 177.451 304.189 179.218 303.64 180.767C302.529 183.877 300.965 186.076 299.781 187.444C298.576 188.815 297.757 189.407 297.686 189.333Z" fill="#E1E1E1"/>
<path d="M280.443 181.435C281.324 180.577 281.09 179.384 280.413 177.933L276.944 181.319C278.447 182.306 279.64 182.221 280.443 181.435ZM282.284 171.204L285.854 167.719C284.253 166.683 283.007 166.867 282.179 167.677C281.299 168.532 281.557 169.753 282.284 171.204ZM273.625 184.555L270.81 187.303L268.359 184.788L271.098 182.116C268.822 179.482 267.27 176.332 267.003 173.897L271.42 172.286C271.714 174.452 272.8 176.921 274.392 178.902L278.591 174.807C276.545 171.357 274.435 167.33 278.03 163.824C280.695 161.226 284.869 160.929 289.197 164.459L291.988 161.736L294.438 164.251L291.699 166.925C293.386 168.956 294.674 171.28 295.144 173.522L290.825 175.283C290.304 173.289 289.457 171.566 288.381 170.161L284.108 174.329C286.176 177.755 288.237 181.73 284.694 185.189C282.081 187.738 277.953 188.036 273.625 184.555Z" fill="#E1E1E1"/>
<path d="M185.947 230.073C191.557 246.271 182.947 263.958 166.713 269.583C150.479 275.208 132.77 266.639 127.157 250.442C121.548 234.245 130.157 216.554 146.391 210.929C162.625 205.307 180.334 213.876 185.947 230.073Z" fill="#ECECEC"/>
<path d="M178.951 232.496C183.23 244.838 176.666 258.318 164.294 262.606C151.924 266.89 138.429 260.361 134.154 248.019C129.875 235.674 136.439 222.194 148.811 217.906C161.181 213.622 174.676 220.154 178.951 232.496Z" fill="#F6F7F8"/>
<path d="M178.706 231.797C178.571 231.846 178.132 230.898 177.178 229.307C176.218 227.73 174.688 225.497 172.216 223.335C170.983 222.262 169.526 221.206 167.839 220.292C166.149 219.397 164.241 218.615 162.15 218.124C161.107 217.873 160.021 217.679 158.902 217.581C157.785 217.48 156.635 217.437 155.473 217.514C154.31 217.584 153.126 217.719 151.952 217.977C150.774 218.231 149.599 218.575 148.44 219.007C147.287 219.458 146.183 219.986 145.137 220.578C144.088 221.173 143.115 221.86 142.201 222.58C141.284 223.301 140.456 224.099 139.69 224.921C138.92 225.74 138.242 226.608 137.628 227.488C136.399 229.251 135.497 231.104 134.837 232.901C134.19 234.708 133.807 236.462 133.604 238.088C133.206 241.345 133.552 244.028 133.89 245.841C134.239 247.666 134.549 248.663 134.411 248.715C134.313 248.752 133.779 247.838 133.203 246.013C132.644 244.197 132.074 241.421 132.326 237.965C132.454 236.244 132.786 234.361 133.411 232.417C134.052 230.481 134.963 228.472 136.242 226.555C136.88 225.595 137.592 224.648 138.408 223.755C139.217 222.86 140.101 221.989 141.082 221.203C142.06 220.412 143.103 219.664 144.232 219.017C145.357 218.369 146.551 217.799 147.793 217.314C149.044 216.845 150.311 216.48 151.584 216.21C152.856 215.94 154.132 215.802 155.387 215.738C156.644 215.67 157.88 215.732 159.083 215.861C160.285 215.98 161.447 216.21 162.561 216.502C164.797 217.078 166.812 217.965 168.581 218.983C170.342 220.016 171.845 221.197 173.09 222.393C175.58 224.801 177.01 227.249 177.804 228.975C178.592 230.72 178.804 231.76 178.706 231.797Z" fill="#E1E1E1"/>
<path d="M163.686 244.866C163.245 243.654 161.999 243.36 160.322 243.381L162.058 248.163C163.653 247.154 164.088 245.976 163.686 244.866ZM154.694 238.676L152.906 233.757C151.222 234.836 150.86 236.106 151.274 237.25C151.712 238.465 152.991 238.744 154.694 238.676ZM163.717 252.739L165.125 256.622L161.659 257.876L160.288 254.101C156.782 255.137 153.099 255.257 150.651 254.457L151.025 249.537C153.221 250.193 156.055 250.221 158.641 249.561L156.54 243.771C152.353 244.231 147.59 244.507 145.793 239.551C144.462 235.876 145.986 231.754 151.237 229.147L149.842 225.298L153.307 224.04L154.675 227.819C157.353 227.083 160.132 226.859 162.478 227.38L162.294 232.272C160.159 231.911 158.144 231.972 156.335 232.392L158.475 238.287C162.647 237.79 167.342 237.542 169.115 242.427C170.422 246.031 168.919 250.107 163.717 252.739Z" fill="#E1E1E1"/>
<path d="M67.7729 153.249C67.9508 167.637 56.4063 179.442 41.988 179.623C27.5698 179.804 15.7339 168.287 15.5561 153.902C15.3751 139.515 26.9195 127.71 41.3378 127.529C55.7561 127.348 67.5919 138.864 67.7729 153.249Z" fill="#ECECEC"/>
<path d="M61.559 153.329C61.6971 164.29 52.8976 173.289 41.9114 173.427C30.9221 173.562 21.9049 164.787 21.7669 153.823C21.632 142.861 30.4283 133.862 41.4145 133.727C52.4038 133.589 61.421 142.364 61.559 153.329Z" fill="#F6F7F8"/>
<path d="M61.5468 152.703C61.4271 152.709 61.329 151.838 60.9916 150.317C60.645 148.808 60.0132 146.624 58.6208 144.25C57.9245 143.066 57.0412 141.84 55.9402 140.665C54.8329 139.502 53.5202 138.377 51.9836 137.429C51.2169 136.954 50.4041 136.512 49.5392 136.141C48.6773 135.761 47.7726 135.423 46.8248 135.175C45.8802 134.923 44.9049 134.718 43.8989 134.614C42.8929 134.503 41.8685 134.466 40.8287 134.503C39.792 134.555 38.7738 134.684 37.7801 134.88C36.7894 135.074 35.8325 135.365 34.9154 135.696C33.9922 136.027 33.1212 136.445 32.2961 136.895C31.465 137.343 30.6951 137.855 29.9744 138.395C28.5267 139.475 27.3183 140.711 26.3154 141.965C25.3247 143.232 24.5518 144.529 23.9629 145.772C22.7821 148.259 22.3466 150.489 22.1349 152.022C21.9295 153.568 21.9111 154.445 21.7914 154.448C21.7025 154.454 21.5185 153.583 21.543 151.976C21.5767 150.381 21.8589 148.02 22.9753 145.336C23.5335 143.996 24.2972 142.588 25.3094 141.205C26.3307 139.831 27.5882 138.475 29.1156 137.285C29.8762 136.69 30.6951 136.123 31.5815 135.629C32.4648 135.129 33.3972 134.672 34.3879 134.304C35.3755 133.933 36.406 133.614 37.4764 133.399C38.5438 133.178 39.6448 133.04 40.7643 132.985C41.8838 132.942 42.991 132.985 44.0737 133.108C45.1594 133.23 46.2114 133.457 47.2297 133.739C48.248 134.019 49.2171 134.393 50.1373 134.816C51.0635 135.23 51.9315 135.721 52.7412 136.248C54.3667 137.297 55.7377 138.539 56.8787 139.818C58.0074 141.107 58.8907 142.447 59.5654 143.729C60.9119 146.308 61.3995 148.633 61.5774 150.219C61.743 151.817 61.6357 152.7 61.5468 152.703Z" fill="#E1E1E1"/>
<path d="M46.1223 159.138C46.0917 158.055 45.1808 157.491 43.8374 157.061L43.9509 161.331C45.4905 160.95 46.1499 160.128 46.1223 159.138ZM40.6016 151.826L40.482 147.434C38.8534 147.848 38.2277 148.762 38.2553 149.783C38.2829 150.866 39.2276 151.43 40.6016 151.826ZM44.0613 165.416L44.1564 168.879L41.0617 168.962L40.9727 165.591C37.9057 165.487 34.9398 164.609 33.2039 163.324L34.8018 159.503C36.3783 160.607 38.6295 161.383 40.8623 161.539L40.7212 156.371C37.2677 155.629 33.4001 154.589 33.2805 150.164C33.1947 146.885 35.498 144.008 40.3716 143.318L40.2796 139.886L43.3712 139.8L43.4632 143.174C45.788 143.296 48.0638 143.855 49.7936 144.891L48.349 148.737C46.748 147.885 45.1255 147.4 43.5736 147.256L43.7147 152.516C47.1713 153.228 50.9744 154.27 51.091 158.632C51.1799 161.849 48.9011 164.695 44.0613 165.416Z" fill="#E1E1E1"/>
<path d="M191.422 40.7582C193.271 37.4397 194.332 33.612 194.332 29.5297C194.332 16.875 184.193 6.61873 171.685 6.61873C169.599 6.61873 167.581 6.9101 165.661 7.44377C175.243 10.1152 182.285 18.9882 182.285 29.5297C182.285 40.0712 175.243 48.9442 165.661 51.6126C167.581 52.1463 169.599 52.4376 171.685 52.4376C176.092 52.4376 180.202 51.1617 183.68 48.9596L194.332 53.0756L191.422 40.7582Z" fill="#ECECEC"/>
<path d="M338.662 335.353C338.662 335.467 264.001 335.559 171.921 335.559C79.8081 335.559 5.16187 335.467 5.16187 335.353C5.16187 335.243 79.8081 335.151 171.921 335.151C264.001 335.151 338.662 335.243 338.662 335.353Z" fill="#192F36"/>
<mask id="mask0_119_622" style="mask-type:alpha" maskUnits="userSpaceOnUse" x="80" y="310" width="22" height="38">
<path d="M80.0872 310.142H101.287V347.625H80.0872V310.142Z" fill="white"/>
</mask>
<g mask="url(#mask0_119_622)">
<path d="M95.033 310.145L95.674 329.682L100.64 344.993C100.995 346.094 100.345 347.272 99.2196 347.551C98.5877 347.711 97.9283 347.557 97.4345 347.134C94.2969 344.444 82.8015 334.489 82.8322 333.056C82.8721 331.397 80.7896 312.488 80.7896 312.488L95.033 310.145Z" fill="#F0525F"/>
</g>
<mask id="mask1_119_622" style="mask-type:alpha" maskUnits="userSpaceOnUse" x="82" y="331" width="18" height="17">
<path d="M82.4429 331.342H99.7166V347.625H82.4429V331.342Z" fill="white"/>
</mask>
<g mask="url(#mask1_119_622)">
<path d="M99.2196 347.551L82.7617 331.737L82.8077 332.566C82.8476 333.28 83.1359 333.958 83.6297 334.476C84.9485 335.866 88.6812 339.617 97.3732 347.137C97.8793 347.576 98.5755 347.732 99.2196 347.551Z" fill="#E1E1E1"/>
</g>
<path d="M86.4146 325.217C86.9238 325.53 87.1262 326.26 86.8348 326.778C86.5435 327.299 85.8043 327.511 85.2921 327.207C84.7768 326.907 84.51 326.036 84.8535 325.554C85.2001 325.07 86.0865 324.867 86.5097 325.284" fill="white"/>
<path d="M94.2817 339.273C94.3952 339.319 94.7786 338.273 95.9103 337.66C97.0206 337.013 98.1155 337.224 98.1339 337.105C98.1462 337.056 97.8916 336.918 97.4316 336.878C96.9746 336.835 96.3182 336.939 95.6987 337.286C95.0822 337.635 94.6528 338.144 94.4534 338.555C94.2479 338.97 94.2326 339.261 94.2817 339.273Z" fill="#192F36"/>
<path d="M95.8182 341.81C95.9163 341.889 96.5052 341.218 97.502 340.874C98.4865 340.506 99.3668 340.644 99.3944 340.521C99.4434 340.417 98.4804 340.055 97.3548 340.469C96.2261 340.871 95.7139 341.761 95.8182 341.81Z" fill="#192F36"/>
<path d="M91.5089 336.065C91.604 336.154 92.5088 335.12 94.0055 334.446C95.493 333.749 96.8671 333.74 96.864 333.611C96.8886 333.504 95.4225 333.314 93.8276 334.056C92.2236 334.783 91.4108 336.016 91.5089 336.065Z" fill="#192F36"/>
<path d="M90.8159 330.142C90.8741 330.256 91.9261 329.747 93.3278 329.618C94.7264 329.468 95.8612 329.762 95.8949 329.639C95.944 329.541 94.7908 329.035 93.2849 329.192C91.782 329.333 90.7484 330.057 90.8159 330.142Z" fill="#192F36"/>
<path d="M90.4816 324.413C90.5491 324.521 91.598 323.809 93.0825 323.797C94.57 323.748 95.6465 324.413 95.7079 324.3C95.7386 324.257 95.5116 324.024 95.0454 323.791C94.5853 323.554 93.8738 323.349 93.0733 323.367C92.2758 323.386 91.5735 323.619 91.1226 323.873C90.6687 324.128 90.4509 324.37 90.4816 324.413Z" fill="#192F36"/>
<path d="M92.9874 322.708C93.0119 322.705 93.0426 322.441 92.972 321.966C92.9045 321.496 92.7267 320.809 92.2789 320.067C92.0488 319.715 91.8035 319.261 91.2422 319.034C90.9662 318.92 90.5644 318.991 90.3466 319.264C90.1319 319.527 90.0767 319.853 90.0859 320.162C90.1779 321.401 91.3066 322.539 92.7113 322.641C94.1191 322.717 95.3429 321.846 95.8367 320.745C95.9409 320.46 96.0084 320.116 95.8367 319.797C95.671 319.472 95.2662 319.362 94.9902 319.423C94.4135 319.543 94.067 319.899 93.7388 320.165C93.0978 320.742 92.7113 321.334 92.4936 321.754C92.2697 322.177 92.2083 322.435 92.2298 322.447C92.3003 322.493 92.6684 321.46 93.9381 320.395C94.2571 320.147 94.6252 319.837 95.0423 319.776C95.2447 319.745 95.4226 319.816 95.5054 319.975C95.5882 320.129 95.5606 320.377 95.4686 320.601C95.0484 321.503 93.9289 322.294 92.7389 322.211C91.555 322.138 90.5644 321.135 90.4816 320.141C90.4662 319.902 90.5153 319.653 90.638 319.506C90.7545 319.359 90.9447 319.31 91.1287 319.371C91.5182 319.503 91.7943 319.899 92.0212 320.23C92.926 321.616 92.9015 322.729 92.9874 322.708Z" fill="#192F36"/>
<path d="M133.074 313.047L132.062 327.655C132.062 327.655 146.572 333.593 146.649 336.31L118.248 335.366L118.892 312.534L133.074 313.047Z" fill="#F0525F"/>
<path d="M123.321 326.134C122.765 326.266 122.367 326.87 122.474 327.431C122.581 327.989 123.195 328.403 123.753 328.281C124.308 328.158 124.811 327.447 124.639 326.904C124.471 326.358 123.725 325.913 123.213 326.165" fill="#E1E1E1"/>
<path d="M118.248 335.366L118.404 333.068L145.575 334.832C145.575 334.832 146.82 335.424 146.649 336.31L118.248 335.366Z" fill="#E1E1E1"/>
<path d="M132.525 327.526C132.516 327.667 131.823 327.704 131.123 328.127C130.415 328.535 130.044 329.124 129.918 329.063C129.792 329.032 130.025 328.21 130.878 327.713C131.728 327.207 132.559 327.401 132.525 327.526Z" fill="#192F36"/>
<path d="M135.463 328.86C135.491 328.995 134.883 329.21 134.393 329.781C133.884 330.339 133.746 330.968 133.608 330.958C133.476 330.974 133.408 330.158 134.031 329.462C134.647 328.759 135.466 328.726 135.463 328.86Z" fill="#192F36"/>
<path d="M137.037 332.48C136.911 332.504 136.739 331.808 137.122 331.06C137.497 330.308 138.162 330.029 138.217 330.149C138.291 330.265 137.855 330.658 137.552 331.277C137.233 331.888 137.175 332.47 137.037 332.48Z" fill="#192F36"/>
<path d="M132.387 324.171C132.326 324.297 131.697 324.085 130.909 324.11C130.123 324.122 129.504 324.364 129.436 324.245C129.36 324.14 129.973 323.646 130.899 323.628C131.823 323.604 132.457 324.067 132.387 324.171Z" fill="#192F36"/>
<path d="M132.537 321.22C132.537 321.279 131.985 321.346 131.114 321.165C130.682 321.076 130.172 320.917 129.642 320.659C129.378 320.53 129.108 320.377 128.841 320.199C128.713 320.11 128.559 320.021 128.421 319.849C128.271 319.702 128.197 319.328 128.384 319.11C128.535 318.896 128.795 318.81 129.001 318.813C129.209 318.813 129.378 318.862 129.531 318.905C129.844 318.991 130.139 319.107 130.406 319.239C130.939 319.503 131.372 319.831 131.691 320.141C132.326 320.773 132.534 321.3 132.488 321.325C132.424 321.368 132.117 320.923 131.464 320.398C131.136 320.135 130.718 319.865 130.218 319.641C129.967 319.53 129.697 319.435 129.409 319.362C129.111 319.273 128.857 319.261 128.774 319.392C128.743 319.445 128.74 319.463 128.798 319.555C128.863 319.638 128.982 319.721 129.108 319.81C129.354 319.981 129.602 320.132 129.844 320.264C130.332 320.524 130.801 320.708 131.203 320.837C132.01 321.089 132.543 321.147 132.537 321.22Z" fill="#192F36"/>
<path d="M132.35 321.414C132.301 321.435 132.043 320.926 132.022 320.027C132.013 319.58 132.077 319.043 132.267 318.475C132.362 318.196 132.491 317.908 132.657 317.626C132.835 317.35 133.049 316.982 133.589 316.936C133.868 316.936 134.095 317.163 134.169 317.353C134.258 317.549 134.27 317.715 134.298 317.88C134.341 318.212 134.322 318.537 134.267 318.837C134.157 319.438 133.893 319.935 133.611 320.288C133.031 321.006 132.448 321.15 132.436 321.104C132.393 321.033 132.884 320.782 133.335 320.089C133.555 319.745 133.755 319.291 133.828 318.767C133.865 318.503 133.868 318.224 133.828 317.942C133.795 317.641 133.69 317.393 133.577 317.42C133.436 317.414 133.187 317.632 133.062 317.868C132.908 318.12 132.782 318.374 132.684 318.629C132.491 319.135 132.396 319.626 132.362 320.04C132.295 320.871 132.427 321.395 132.35 321.414Z" fill="#192F36"/>
<path d="M74.6829 168.854L78.8817 325.925L101.284 325.25L106.629 163.499L74.6829 168.854Z" fill="#192F36"/>
<path d="M121.253 163.232C121.253 163.232 137.886 229.818 138.395 241.173C138.904 252.527 134.834 323.487 134.834 323.487H112.902L114.733 242.679L98.0725 174.289L102.106 163.582L121.253 163.232Z" fill="#192F36"/>
<path d="M107.715 171.409C107.721 171.409 107.724 171.483 107.724 171.624C107.721 171.786 107.715 171.992 107.712 172.246C107.691 172.823 107.66 173.624 107.623 174.639C107.525 176.749 107.387 179.745 107.218 183.435C106.838 190.888 106.314 201.129 105.734 212.443C105.108 223.761 104.541 234.005 104.13 241.455C103.906 245.145 103.725 248.138 103.596 250.245C103.526 251.26 103.47 252.058 103.431 252.634C103.409 252.889 103.391 253.091 103.375 253.257C103.363 253.395 103.351 253.465 103.345 253.465C103.339 253.465 103.335 253.395 103.335 253.254C103.339 253.091 103.342 252.886 103.348 252.631C103.369 252.055 103.4 251.254 103.437 250.242C103.532 248.132 103.67 245.135 103.842 241.446C104.222 233.993 104.746 223.749 105.326 212.428C105.952 201.114 106.516 190.873 106.93 183.42C107.154 179.733 107.335 176.74 107.464 174.63C107.534 173.617 107.589 172.817 107.629 172.24C107.651 171.989 107.669 171.783 107.681 171.621C107.697 171.48 107.706 171.409 107.715 171.409Z" fill="#375A65"/>
<path d="M105.256 77.8514C105.256 77.8514 113.392 118.242 113.512 129.62C113.629 141.002 117.625 163.232 117.625 163.232H82.3691L81.6085 101.701L79.0996 83.3476L84.3934 75.7995L105.256 77.8514Z" fill="#F6F7F8"/>
<path d="M105.682 79.0414C105.682 79.0414 114.092 81.5104 116.315 84.6234C118.07 87.0771 120.434 133.534 120.434 133.534L124.044 174.452L120.514 174.124L115.533 158.807L105.682 79.0414Z" fill="#77C63A"/>
<path d="M116.315 84.6234L140.061 106.412L169.278 96.9469L175.099 109.212L143.922 123.361C139.469 125.262 136.675 124.216 133.583 121.741L117.226 108.642L116.315 84.6234Z" fill="#77C63A"/>
<path d="M163.836 100.854C164.005 101.167 163.885 101.554 163.573 101.722C163.263 101.888 162.873 101.768 162.708 101.459C162.539 101.146 162.659 100.756 162.971 100.591C163.284 100.425 163.671 100.542 163.836 100.854Z" fill="#192F36"/>
<path d="M163.272 100.535C163.174 100.535 163.073 100.557 162.981 100.609C162.834 100.686 162.726 100.818 162.677 100.974C162.631 101.133 162.646 101.302 162.723 101.449C162.803 101.594 162.932 101.701 163.091 101.75C163.251 101.799 163.419 101.781 163.563 101.704C163.711 101.624 163.818 101.495 163.867 101.336C163.916 101.176 163.898 101.011 163.821 100.864C163.708 100.655 163.493 100.535 163.272 100.535ZM163.272 101.817L163.079 101.787C162.91 101.738 162.772 101.624 162.689 101.468C162.607 101.311 162.588 101.133 162.64 100.965C162.692 100.796 162.806 100.655 162.962 100.572C163.116 100.489 163.297 100.474 163.465 100.523C163.634 100.575 163.772 100.689 163.855 100.845C163.938 101.002 163.956 101.179 163.904 101.348C163.852 101.517 163.738 101.655 163.585 101.738C163.487 101.79 163.379 101.817 163.272 101.817Z" fill="#192F36"/>
<path d="M166.287 100.272C166.453 100.584 166.336 100.971 166.023 101.14C165.71 101.305 165.324 101.189 165.155 100.876C164.99 100.563 165.106 100.177 165.419 100.008C165.732 99.8422 166.121 99.9588 166.287 100.272Z" fill="#192F36"/>
<path d="M165.72 99.9526C165.618 99.9526 165.52 99.9772 165.428 100.026C165.128 100.186 165.011 100.563 165.174 100.867C165.254 101.014 165.382 101.118 165.542 101.167C165.701 101.216 165.87 101.198 166.014 101.121C166.318 100.962 166.431 100.584 166.269 100.281C166.192 100.134 166.06 100.026 165.904 99.9802L165.72 99.9526ZM165.723 101.235L165.53 101.204C165.361 101.155 165.223 101.041 165.14 100.885C164.968 100.563 165.091 100.161 165.41 99.9925C165.566 99.9097 165.744 99.8913 165.913 99.9404C166.082 99.9925 166.22 100.106 166.306 100.262C166.388 100.419 166.404 100.597 166.355 100.765C166.302 100.934 166.189 101.072 166.033 101.155C165.937 101.207 165.83 101.235 165.723 101.235Z" fill="#192F36"/>
<path d="M168.618 99.8023C168.784 100.112 168.667 100.502 168.354 100.667C168.041 100.836 167.655 100.716 167.489 100.407C167.321 100.094 167.44 99.7042 167.75 99.5386C168.063 99.3699 168.452 99.4895 168.618 99.8023Z" fill="#192F36"/>
<path d="M168.051 99.4834C167.952 99.4834 167.854 99.5049 167.759 99.557C167.615 99.6337 167.508 99.7625 167.459 99.922C167.41 100.081 167.428 100.25 167.505 100.394C167.584 100.542 167.713 100.649 167.873 100.698C168.032 100.744 168.198 100.729 168.345 100.652C168.646 100.489 168.762 100.112 168.6 99.8116C168.489 99.5999 168.274 99.4834 168.051 99.4834ZM168.054 100.765L167.86 100.735C167.692 100.683 167.554 100.569 167.471 100.416C167.388 100.259 167.37 100.081 167.422 99.9097C167.474 99.741 167.587 99.603 167.741 99.5202C168.063 99.3484 168.465 99.4711 168.636 99.7932C168.805 100.112 168.685 100.514 168.363 100.686C168.268 100.738 168.161 100.765 168.054 100.765Z" fill="#192F36"/>
<path d="M169.569 97.5542L171.829 96.7292L177.016 107.66L174.807 108.602L169.569 97.5542Z" fill="#E1E1E1"/>
<path d="M117.076 93.2327C117.104 93.2327 117.15 93.6682 117.211 94.4534C117.3 95.3122 117.413 96.4316 117.551 97.7811C117.88 100.661 118.312 104.504 118.794 108.755C119.269 113.046 119.649 116.935 119.824 119.76C119.919 121.171 119.959 122.318 119.968 123.109C119.971 123.903 119.956 124.339 119.928 124.339C119.901 124.339 119.861 123.903 119.812 123.115C119.75 122.33 119.668 121.189 119.536 119.784C119.287 116.969 118.864 113.089 118.389 108.801C117.913 104.513 117.496 100.627 117.263 97.8087C117.147 96.3979 117.082 95.2539 117.051 94.4626C117.039 93.6713 117.048 93.2327 117.076 93.2327Z" fill="#192F36"/>
<path d="M122.262 98.6829C122.37 98.7135 121.704 101.336 120.775 104.538C119.845 107.74 119.002 110.31 118.895 110.279C118.787 110.249 119.453 107.626 120.382 104.424C121.312 101.222 122.155 98.6522 122.262 98.6829Z" fill="#192F36"/>
<path d="M139.809 113.77C139.766 113.791 139.518 113.417 139.281 112.73C139.048 112.049 138.861 111.049 138.929 109.939C138.999 108.832 139.309 107.86 139.628 107.215C139.947 106.565 140.241 106.222 140.281 106.249C140.395 106.305 139.453 107.832 139.337 109.967C139.186 112.095 139.932 113.73 139.809 113.77Z" fill="#192F36"/>
<path d="M137.092 139.009L140.131 139.245L138.926 151.921L135.99 151.587L137.092 139.009Z" fill="#E1E1E1"/>
<path d="M84.3963 76.6767L68.0151 87.1231C64.1721 89.8282 62.5557 94.7325 64.0432 99.192L76.6121 138.684L72.079 174.565L107.988 173.041L107.117 157.313L104.065 129.173C103.498 123.956 102.201 118.843 100.21 113.984L84.3963 76.6767Z" fill="#77C63A"/>
<path d="M67.2791 101.357L83.6695 135.65C84.9914 138.42 87.4972 140.441 90.4845 141.149L135.963 151.921L137.119 138.684L102.406 125.627L84.9454 92.1101C82.2893 87.0127 75.8792 85.2123 70.9565 88.1812C66.4326 90.9048 64.8224 96.6831 67.2791 101.357Z" fill="#77C63A"/>
<path d="M137.119 138.684C137.119 138.69 137.055 138.671 136.935 138.631C136.794 138.585 136.616 138.524 136.399 138.45C135.902 138.273 135.215 138.027 134.341 137.711C132.525 137.046 129.936 136.092 126.725 134.911C120.244 132.488 111.249 129.127 101.06 125.317L100.986 125.29L100.949 125.219C99.9802 123.299 98.9619 121.284 97.9283 119.232C95.0821 113.687 92.2451 108.467 89.5951 103.759C88.2671 101.406 86.9881 99.1797 85.7797 97.1064C85.1724 96.0697 84.5835 95.0699 84.0192 94.1068C83.7401 93.6222 83.4579 93.1591 83.1573 92.7236C82.8844 92.2696 82.5501 91.877 82.228 91.4845C80.9368 89.9233 79.3511 88.9081 77.8636 88.3162C76.3699 87.7242 74.9621 87.5525 73.8335 87.5985C71.5332 87.6813 70.4781 88.5738 70.4628 88.5002C70.4597 88.4941 70.5241 88.4481 70.6529 88.3622C70.7848 88.2794 70.975 88.1444 71.2571 88.034C71.8031 87.7794 72.6741 87.5003 73.8273 87.439C74.9744 87.3654 76.4098 87.5187 77.9464 88.1046C79.4738 88.6842 81.1116 89.7117 82.4488 91.2943C82.7801 91.693 83.1236 92.0917 83.4088 92.5549C83.7217 92.9996 84.01 93.4658 84.2922 93.9473C84.8626 94.9042 85.4576 95.901 86.0711 96.9316C87.2948 99.0049 88.586 101.225 89.9233 103.575C92.5947 108.274 95.4409 113.494 98.2933 119.045C99.3423 121.091 100.357 123.109 101.311 125.041L101.201 124.94C111.374 128.798 120.352 132.206 126.82 134.66C130.013 135.889 132.586 136.883 134.39 137.576C135.255 137.917 135.935 138.187 136.423 138.38C136.638 138.469 136.81 138.539 136.948 138.598C137.064 138.647 137.122 138.677 137.119 138.684Z" fill="#192F36"/>
<path d="M129.393 146.937C129.393 147.29 129.105 147.575 128.752 147.575C128.397 147.575 128.111 147.29 128.111 146.937C128.111 146.581 128.397 146.296 128.752 146.296C129.105 146.296 129.393 146.581 129.393 146.937Z" fill="#192F36"/>
<path d="M128.752 146.314C128.409 146.314 128.13 146.594 128.13 146.937C128.13 147.277 128.409 147.557 128.752 147.557C129.093 147.557 129.372 147.277 129.372 146.937C129.372 146.594 129.093 146.314 128.752 146.314ZM128.752 147.596C128.387 147.596 128.093 147.299 128.093 146.937C128.093 146.572 128.387 146.275 128.752 146.275C129.117 146.275 129.412 146.572 129.412 146.937C129.412 147.299 129.117 147.596 128.752 147.596Z" fill="#192F36"/>
<path d="M131.829 147.575C131.829 147.931 131.54 148.216 131.185 148.216C130.832 148.216 130.547 147.931 130.547 147.575C130.547 147.222 130.832 146.937 131.185 146.937C131.54 146.937 131.829 147.222 131.829 147.575Z" fill="#192F36"/>
<path d="M131.185 146.955C130.844 146.955 130.565 147.235 130.565 147.575C130.565 147.918 130.844 148.198 131.185 148.198C131.528 148.198 131.807 147.918 131.807 147.575C131.807 147.235 131.528 146.955 131.185 146.955ZM131.185 148.237C130.823 148.237 130.525 147.94 130.525 147.575C130.525 147.213 130.823 146.916 131.185 146.916C131.55 146.916 131.847 147.213 131.847 147.575C131.847 147.94 131.55 148.237 131.185 148.237Z" fill="#192F36"/>
<path d="M134.104 148.259C134.104 148.615 133.819 148.9 133.463 148.9C133.111 148.9 132.822 148.615 132.822 148.259C132.822 147.906 133.111 147.618 133.463 147.618C133.819 147.618 134.104 147.906 134.104 148.259Z" fill="#192F36"/>
<path d="M133.463 147.639C133.123 147.639 132.844 147.918 132.844 148.259C132.844 148.602 133.123 148.882 133.463 148.882C133.807 148.882 134.086 148.602 134.086 148.259C134.086 147.918 133.807 147.639 133.463 147.639ZM133.463 148.918C133.101 148.918 132.804 148.624 132.804 148.259C132.804 147.894 133.101 147.6 133.463 147.6C133.828 147.6 134.126 147.894 134.126 148.259C134.126 148.624 133.828 148.918 133.463 148.918Z" fill="#192F36"/>
<path d="M135.963 151.921C135.96 151.93 135.886 151.918 135.742 151.887C135.574 151.85 135.365 151.804 135.101 151.743C134.512 151.602 133.693 151.409 132.651 151.157C130.498 150.627 127.434 149.872 123.658 148.943C116.064 147.081 105.584 144.447 93.9626 141.754C92.5119 141.404 91.0704 141.128 89.6503 140.745C88.2425 140.358 86.8501 139.785 85.7644 138.803C84.6847 137.819 83.9885 136.564 83.3843 135.353C82.7985 134.132 82.228 132.936 81.6698 131.767C79.4585 127.099 77.4649 122.894 75.7872 119.352C74.1371 115.831 72.7968 112.975 71.8552 110.966C71.4074 109.994 71.0578 109.227 70.8032 108.678C70.6959 108.43 70.61 108.234 70.5394 108.077C70.4842 107.942 70.4566 107.872 70.4628 107.869C70.4689 107.866 70.5088 107.93 70.5793 108.059C70.656 108.212 70.7541 108.402 70.8799 108.642C71.1467 109.184 71.524 109.939 71.9994 110.899C72.9685 112.893 74.3487 115.73 76.0479 119.226C77.7501 122.759 79.7682 126.952 82.0103 131.605C82.5715 132.767 83.1451 133.96 83.734 135.178C84.3351 136.377 85.016 137.586 86.0312 138.506C87.0495 139.423 88.3775 139.975 89.7607 140.352C91.1471 140.726 92.6039 141.008 94.0546 141.355C105.685 144.048 116.15 146.728 123.729 148.664C127.489 149.645 130.544 150.443 132.69 151.004C133.724 151.286 134.537 151.507 135.123 151.663C135.38 151.74 135.586 151.798 135.751 151.847C135.892 151.89 135.963 151.915 135.963 151.921Z" fill="#192F36"/>
<path d="M99.2317 149.774C99.2471 149.796 99.0538 149.958 98.6919 150.231C98.3269 150.504 97.7902 150.884 97.1154 151.335C95.7629 152.231 93.8368 153.445 91.4659 154.273C89.092 155.102 86.7518 155.212 85.1355 154.908C84.3258 154.764 83.6878 154.556 83.2707 154.372C82.8475 154.188 82.6328 154.056 82.645 154.034C82.6726 153.961 83.5836 154.415 85.1784 154.623C86.761 154.844 89.0184 154.694 91.331 153.887C93.6466 153.08 95.5727 151.921 96.959 151.093C98.3423 150.253 99.2011 149.722 99.2317 149.774Z" fill="#192F36"/>
<path d="M101.219 154.326C101.235 154.323 101.271 154.424 101.333 154.623C101.4 154.819 101.471 155.117 101.541 155.503C101.682 156.276 101.756 157.436 101.511 158.834C101.256 160.221 100.655 161.855 99.4711 163.331C98.3026 164.812 96.5052 166.026 94.4135 166.615C92.3156 167.195 90.1503 167.091 88.3837 166.428C86.6078 165.778 85.246 164.692 84.3075 163.637C83.3751 162.57 82.8384 161.539 82.5562 160.809C82.4182 160.438 82.3231 160.15 82.2771 159.948C82.2281 159.745 82.2066 159.638 82.2219 159.635C82.317 159.58 82.639 161.389 84.5222 163.444C85.4607 164.444 86.798 165.468 88.5125 166.072C90.2116 166.689 92.288 166.778 94.3031 166.223C96.3151 165.652 98.0419 164.502 99.1767 163.091C100.33 161.69 100.943 160.119 101.229 158.779C101.771 156.043 101.109 154.329 101.219 154.326Z" fill="#192F36"/>
<path d="M86.1631 45.4171L86.2643 74.6739C86.2827 79.6486 90.4601 83.599 95.4287 83.3353C100.066 83.0899 103.694 79.2438 103.673 74.6003C103.661 72.3981 103.658 70.5609 103.673 70.334C103.673 70.334 111.117 69.6071 111.629 62.2338C111.877 58.6699 111.788 51.2875 111.632 44.6135C111.463 37.4427 105.808 31.6092 98.6461 31.2013L97.9345 31.1583C90.2331 31.1706 85.9392 37.7188 86.1631 45.4171Z" fill="#C88A76"/>
<path d="M103.691 70.2297C103.691 70.2297 99.0048 70.3432 94.2263 66.9449C94.2263 66.9449 96.1984 72.3858 103.599 72.1405L103.691 70.2297Z" fill="#BF664E"/>
<path d="M109.804 48.9504C109.789 49.5086 109.31 49.9595 108.724 49.9564C108.145 49.9533 107.682 49.5025 107.694 48.9443C107.706 48.3891 108.188 47.9383 108.77 47.9383C109.353 47.9413 109.813 48.3953 109.804 48.9504Z" fill="#192F36"/>
<path d="M110.013 47.7052C109.875 47.837 109.111 47.1991 107.976 47.1377C106.841 47.0611 105.976 47.5947 105.863 47.4506C105.805 47.3862 105.952 47.1439 106.332 46.9016C106.703 46.6593 107.326 46.4385 108.031 46.4814C108.737 46.5274 109.316 46.8188 109.642 47.104C109.976 47.3923 110.08 47.6469 110.013 47.7052Z" fill="#192F36"/>
<path d="M98.7841 48.8614C98.7749 49.4196 98.2903 49.8705 97.7075 49.8674C97.1279 49.8674 96.6647 49.4135 96.677 48.8553C96.6893 48.2971 97.1708 47.8493 97.7535 47.8493C98.3363 47.8524 98.7963 48.3063 98.7841 48.8614Z" fill="#192F36"/>
<path d="M98.7258 47.4506C98.5878 47.5794 97.821 46.9445 96.6862 46.8832C95.5544 46.8034 94.6895 47.3402 94.576 47.193C94.5178 47.1285 94.665 46.8893 95.0422 46.647C95.4134 46.4047 96.039 46.1839 96.7445 46.2238C97.4499 46.2698 98.0296 46.5642 98.3547 46.8494C98.689 47.1377 98.7933 47.3923 98.7258 47.4506Z" fill="#192F36"/>
<path d="M102.317 56.3635C102.314 56.2991 103.029 56.2163 104.179 56.1365C104.47 56.1243 104.746 56.0813 104.808 55.8881C104.887 55.6826 104.783 55.3636 104.663 55.017C104.43 54.3024 104.188 53.551 103.93 52.7627C102.921 49.5577 102.207 46.9261 102.339 46.8862C102.467 46.8464 103.391 49.4135 104.4 52.6217C104.642 53.413 104.875 54.1644 105.096 54.8852C105.185 55.2225 105.354 55.6059 105.179 56.0322C105.09 56.2439 104.869 56.388 104.679 56.4279C104.492 56.4739 104.326 56.4678 104.185 56.4678C103.032 56.4647 102.317 56.4279 102.317 56.3635Z" fill="#192F36"/>
<path d="M99.1826 45.0982C99.0507 45.3987 97.9282 45.1902 96.5879 45.273C95.2476 45.3313 94.1526 45.6594 93.9932 45.3742C93.9195 45.2362 94.125 44.9571 94.5759 44.6841C95.0206 44.4081 95.723 44.1658 96.5266 44.1228C97.3332 44.0799 98.057 44.2486 98.5293 44.4725C99.0047 44.6994 99.2378 44.954 99.1826 45.0982Z" fill="#192F36"/>
<path d="M109.918 45C109.703 45.2484 108.936 44.9356 107.998 44.8681C107.062 44.77 106.252 44.9417 106.087 44.6626C106.013 44.5277 106.151 44.2762 106.513 44.0523C106.869 43.8284 107.455 43.6628 108.099 43.721C108.743 43.7762 109.289 44.0431 109.602 44.3252C109.918 44.6074 110.013 44.8804 109.918 45Z" fill="#192F36"/>
<path d="M86.4544 50.9164C86.3287 50.855 81.4705 49.1252 81.3416 54.1797C81.2159 59.2343 86.3164 58.3172 86.3287 58.1731C86.341 58.0289 86.4544 50.9164 86.4544 50.9164Z" fill="#C88A76"/>
<path d="M84.8319 56.2193C84.8104 56.204 84.7429 56.2807 84.5926 56.3451C84.4454 56.4064 84.1939 56.4463 83.9332 56.342C83.4057 56.1335 82.9763 55.2747 82.9763 54.3607C82.9732 53.9006 83.0806 53.4651 83.2523 53.1063C83.4149 52.7413 83.6633 52.4898 83.9332 52.4499C84.2001 52.3947 84.3872 52.5603 84.4454 52.7014C84.5098 52.8456 84.4761 52.9468 84.5006 52.956C84.516 52.9682 84.611 52.8732 84.5773 52.6646C84.5589 52.5634 84.5006 52.4407 84.3872 52.3426C84.2675 52.2413 84.0896 52.1861 83.9026 52.2015C83.513 52.2199 83.1511 52.5665 82.961 52.9621C82.7524 53.3547 82.6205 53.8454 82.6236 54.3638C82.6297 55.382 83.1266 56.3482 83.8535 56.5782C84.2062 56.6794 84.5037 56.5782 84.6601 56.4647C84.8196 56.342 84.8503 56.2316 84.8319 56.2193Z" fill="#BF664E"/>
<path d="M83.6572 50.5851C84.4362 50.441 85.7275 51.2261 86.0127 51.9684C86.301 52.7075 86.3256 53.5264 86.6139 54.2656C86.8991 55.0048 87.6015 55.6979 88.3805 55.5599C88.9203 55.4648 89.3282 54.9894 89.4969 54.468C89.6687 53.9497 89.6441 53.3884 89.6042 52.8425C89.4417 50.4716 89.0798 48.1069 89.1227 45.7269C89.1626 43.3499 89.641 40.9055 91.0028 38.9548C92.3615 37.0042 94.7354 35.6485 97.091 35.9736C98.6521 36.1883 100.045 37.087 101.59 37.3967C103.421 37.7587 105.412 37.2189 106.807 35.9767C106.853 35.9368 106.945 35.8724 107.056 35.8019C107.565 35.4676 107.82 34.8327 107.629 34.2561C107.565 34.0598 107.479 33.8757 107.359 33.7531C104.434 30.7228 98.9097 29.6064 94.7692 30.4008C90.6317 31.1951 86.6415 33.8573 84.6663 37.5838C82.6911 41.3073 82.9088 46.6593 83.6572 50.5851Z" fill="#192F36"/>
<path d="M99.6398 57.2529C99.8238 57.2437 99.8269 58.4706 100.879 59.3416C101.928 60.2188 103.237 60.0808 103.247 60.2525C103.265 60.3292 102.955 60.4918 102.403 60.504C101.86 60.5255 101.069 60.3507 100.425 59.817C99.7839 59.2833 99.5079 58.5687 99.465 58.0626C99.419 57.5504 99.557 57.2468 99.6398 57.2529Z" fill="#192F36"/>
<path d="M170.191 98.8025C170.191 98.8025 175.724 93.9381 176.773 93.5823C177.822 93.2266 186.152 93.0732 186.717 93.4903C187.278 93.9074 195.709 98.5326 194.314 99.2411C192.918 99.9496 187.066 96.6371 187.066 96.6371L186.085 96.766C186.085 96.766 191.185 99.4895 192.096 100.538C192.934 101.505 192.13 102.661 191.179 102.219C190.225 101.774 185.849 99.2472 185.502 99.3423C185.159 99.4404 190.167 102.369 190.627 102.912C191.25 103.642 190.848 105.056 189.888 104.648C189.321 104.406 184.699 101.345 184.699 101.345C184.699 101.345 188.189 104.286 188.437 104.765C188.845 105.55 188.063 106.262 187.257 105.768C186.704 105.43 184.331 103.093 183.588 102.639C183.588 102.639 182.769 102.581 181.567 103.863C180.365 105.142 175.62 106.906 175.62 106.906L170.191 98.8025Z" fill="#C88A76"/>
<path d="M194.289 99.2564C194.286 99.3086 193.596 99.3546 192.501 99.1429C191.955 99.0386 191.311 98.8608 190.627 98.5847C189.968 98.2688 189.256 97.9069 188.508 97.5266C187.956 97.2413 187.422 96.9653 186.919 96.7046L187.024 96.7291C184.542 96.7537 182.745 96.7077 182.742 96.6065C182.739 96.5083 184.533 96.3856 187.017 96.3028H187.07L187.122 96.3304C187.625 96.5819 188.155 96.8488 188.704 97.1248C189.431 97.502 190.127 97.864 190.787 98.2044C191.437 98.4927 192.05 98.6951 192.572 98.8362C193.618 99.1184 194.293 99.1889 194.289 99.2564Z" fill="#BF664E"/>
<path d="M172.252 100.207C172.624 100.903 173.562 101.087 174.335 100.925C175.105 100.759 175.798 100.342 176.556 100.121C178.822 99.468 181.343 100.68 183.573 99.9158C183.886 99.8085 184.235 99.5815 184.199 99.2533C184.162 98.9528 183.821 98.8025 183.53 98.7074C181.052 97.9192 178.571 97.1279 176.089 96.3366" fill="#C88A76"/>
<path d="M176.089 96.3366C176.099 96.3089 176.393 96.3703 176.921 96.5114C177.445 96.6525 178.203 96.8672 179.135 97.1432C180.104 97.4376 181.205 97.7689 182.404 98.1339C182.714 98.2289 183.027 98.3271 183.349 98.4283C183.641 98.5418 184.073 98.5632 184.355 99.0264C184.484 99.2625 184.404 99.5907 184.239 99.7563C184.079 99.9312 183.892 100.029 183.702 100.106C183.334 100.229 182.963 100.318 182.576 100.357C181.037 100.514 179.635 100.155 178.377 100.131C177.749 100.106 177.154 100.152 176.623 100.296C176.096 100.44 175.611 100.67 175.148 100.836C174.225 101.219 173.308 101.152 172.82 100.854C172.308 100.56 172.234 100.204 172.252 100.207C172.286 100.18 172.418 100.486 172.897 100.698C173.372 100.919 174.16 100.94 175.034 100.545C175.476 100.364 175.951 100.115 176.522 99.9404C177.095 99.7655 177.73 99.7073 178.387 99.7195C179.696 99.7287 181.101 100.063 182.527 99.9128C182.883 99.879 183.23 99.7931 183.545 99.6919C183.849 99.5815 184.058 99.3607 183.963 99.2165C183.88 99.0417 183.539 98.9313 183.22 98.8331C182.901 98.7289 182.589 98.6246 182.282 98.5264C181.092 98.1277 180 97.7627 179.04 97.4438C178.12 97.1279 177.378 96.8672 176.868 96.677C176.356 96.4868 176.08 96.3672 176.089 96.3366Z" fill="#BF664E"/>
<path d="M138.763 139.318L147.943 138.408C147.943 138.408 160.082 146.722 158.917 148.55C157.751 150.381 155.758 148.55 155.758 148.55C155.758 148.55 157.92 151.213 154.427 152.044C154.427 152.044 153.596 153.872 152.268 153.706L151.433 153.715C151.433 153.715 150.682 156.034 149.562 155.534C148.443 155.034 145.054 152.044 145.054 152.044L135.638 151.213L138.763 139.318Z" fill="#C88A76"/>
<path d="M144.474 148.78C144.474 148.78 142.122 149.685 141.634 150.627C141.146 151.571 140.861 153.798 142.379 154.203C142.959 154.356 145.048 154.117 145.048 154.117L144.468 151.648C144.468 151.648 145.348 150.633 145.87 150.197C146.373 149.78 145.824 148.155 144.474 148.78Z" fill="#FAB9A0"/>
<path d="M147.118 150.038C147.118 150.038 144.769 150.94 144.281 151.884C143.793 152.826 144.115 154.411 145.63 154.816C146.21 154.973 148.056 154.734 148.056 154.734L147.811 154.255C147.333 153.329 147.13 152.577 147.967 151.958L148.516 151.455C148.977 151.019 148.47 149.409 147.118 150.038Z" fill="#FAB9A0"/>
<path d="M147.685 154.648C147.256 154.252 147.216 153.547 147.495 153.034C147.774 152.519 148.311 152.188 148.872 152.028C149.243 151.924 149.7 151.909 149.949 152.203C150.108 152.393 150.133 152.663 150.099 152.909C150.01 153.562 149.587 154.111 149.176 154.626C148.958 154.902 148.688 155.2 148.338 155.194C147.98 155.184 147.722 154.856 147.52 154.559" fill="#FAB9A0"/>
<path d="M98.0725 80.6454L100.137 79.8633L101.925 83.0592L100.931 86.4729L98.8239 86.9943L96.7261 84.3505L98.0725 80.6454Z" fill="#F0525F"/>
<path d="M98.8237 86.9943C98.8237 86.9943 101.495 101.686 103.722 112.018C103.722 112.018 105.55 120.619 106.289 122.603C107.114 124.82 109.654 128.13 109.654 128.13L112.239 129.133L110.66 114.613L100.931 86.4729L98.8237 86.9943Z" fill="#F0525F"/>
<path d="M98.8239 86.9943L96.7261 84.3505L98.0725 80.6454L100.137 79.8633L101.925 83.0592L100.931 86.4729L98.8239 86.9943Z" fill="#A22D35"/>
<path d="M106.878 123.885C106.577 123.351 106.353 122.891 106.289 122.603C106.436 123.005 106.642 123.44 106.878 123.885Z" fill="#959595"/>
<path d="M112.239 129.133L109.654 128.13C109.654 128.13 107.853 125.615 106.878 123.885C106.642 123.44 106.436 123.005 106.289 122.603C105.814 120.539 103.722 112.018 103.722 112.018C101.495 101.686 98.8237 86.9943 98.8237 86.9943L100.931 86.4729L110.66 114.613L112.239 129.133Z" fill="#A22D35"/>
<path d="M85.6875 71.7172L98.0723 80.6455L95.3948 88.0095L84.1233 76.4037L85.6875 71.7172Z" fill="#F6F7F8"/>
<path d="M100.136 79.8633L103.599 72.1405L105.556 78.5108L102.835 85.2062L100.136 79.8633Z" fill="#F6F7F8"/>
<path d="M98.0725 80.6455C98.0939 80.6516 98.0418 80.8509 97.9345 81.2098C97.7934 81.6361 97.6277 82.1483 97.4315 82.7495C96.9898 84.0622 96.3426 85.9147 95.5728 88.0739L95.4685 88.3745L95.2538 88.1383C94.3583 87.1507 93.3829 86.0742 92.3647 84.9516C90.1196 82.4612 88.1076 80.1915 86.666 78.5353C85.9913 77.7532 85.427 77.0907 84.973 76.5601C84.5804 76.0878 84.3719 75.8179 84.3934 75.7995C84.4148 75.778 84.6602 76.0142 85.0896 76.4528C85.5711 76.9619 86.1692 77.5937 86.8777 78.3421C88.3775 79.9492 90.4232 82.1882 92.6683 84.6786C93.6804 85.8073 94.6466 86.8869 95.536 87.8807L95.214 87.9451C96.0114 85.792 96.7076 83.961 97.2106 82.6697C97.4468 82.0808 97.6492 81.584 97.8148 81.1669C97.9621 80.8203 98.0541 80.6363 98.0725 80.6455Z" fill="#192F36"/>
<path d="M105.556 78.5108C105.608 78.5322 105.384 79.2193 104.976 80.3173C104.572 81.4153 103.986 82.9181 103.314 84.5713C103.216 84.8136 103.118 85.0528 103.026 85.2829L102.82 85.7797L102.645 85.2737C101.597 82.2618 100.069 80.2651 100.177 80.2007C100.213 80.1701 100.637 80.6332 101.21 81.4889C101.781 82.3415 102.48 83.6082 103.029 85.1387L102.649 85.1295C102.741 84.8995 102.839 84.6602 102.937 84.4179C103.609 82.7648 104.237 81.2773 104.71 80.2069C105.185 79.1395 105.504 78.4893 105.556 78.5108Z" fill="#192F36"/>
<path d="M263.022 311.007L267.801 329.965L275.904 343.871C276.487 344.874 276.1 346.159 275.061 346.674C274.478 346.962 273.8 346.953 273.227 346.646C269.589 344.683 256.241 337.396 255.971 335.988C255.655 334.36 249.604 316.325 249.604 316.325L263.022 311.007Z" fill="#F0525F"/>
<path d="M274.128 346.907C273.797 346.907 273.469 346.824 273.171 346.662C263.078 341.159 258.633 338.286 257.051 337.209C256.732 336.994 256.462 336.721 256.25 336.409C258.219 338.476 269.865 344.834 273.227 346.646C273.521 346.806 273.846 346.886 274.171 346.886C274.475 346.886 274.778 346.815 275.061 346.674C274.769 346.83 274.447 346.907 274.128 346.907ZM255.913 335.749C255.888 335.679 255.864 335.605 255.842 335.531C255.849 335.531 255.852 335.531 255.855 335.531C255.879 335.611 255.898 335.685 255.913 335.749ZM255.753 335.179C255.75 335.179 255.75 335.179 255.747 335.179L255.622 334.731C255.671 334.893 255.717 335.044 255.753 335.179Z" fill="white"/>
<path d="M255.843 335.533C255.843 335.527 255.84 335.52 255.84 335.517L255.747 335.179C255.75 335.179 255.75 335.179 255.753 335.179C255.793 335.308 255.827 335.428 255.855 335.533C255.852 335.533 255.849 335.533 255.843 335.533Z" fill="#A8AFB1"/>
<path d="M274.171 346.886C273.846 346.886 273.521 346.806 273.227 346.646C269.865 344.834 258.22 338.476 256.25 336.409C256.112 336.203 255.999 335.982 255.913 335.749C255.898 335.685 255.879 335.611 255.855 335.531C255.827 335.427 255.793 335.307 255.754 335.179C255.717 335.044 255.671 334.893 255.622 334.731L255.619 334.719L275.061 346.674C274.779 346.815 274.475 346.886 274.171 346.886Z" fill="#F8B7BF"/>
<path d="M257.44 329.802C257.336 329.802 257.229 329.787 257.128 329.753C256.563 329.569 256.115 328.775 256.352 328.229C256.526 327.818 257.032 327.499 257.489 327.499C257.64 327.499 257.784 327.536 257.91 327.612C258.41 327.851 258.707 328.474 258.545 329.005C258.403 329.474 257.922 329.802 257.44 329.802Z" fill="#F8B7BF"/>
<path d="M268.479 339.632C268.598 339.657 268.752 338.552 269.724 337.709C270.675 336.841 271.788 336.816 271.779 336.694C271.782 336.645 271.503 336.565 271.046 336.623C270.592 336.682 269.972 336.918 269.439 337.39C268.911 337.862 268.601 338.451 268.491 338.896C268.381 339.344 268.427 339.629 268.479 339.632Z" fill="#192F36"/>
<path d="M270.518 341.785C270.629 341.84 271.064 341.061 271.963 340.512C272.849 339.945 273.739 339.893 273.739 339.767C273.766 339.657 272.748 339.506 271.736 340.15C270.715 340.779 270.405 341.761 270.518 341.785Z" fill="#192F36"/>
<path d="M265.087 337.089C265.197 337.154 265.863 335.952 267.181 334.976C268.488 333.979 269.828 333.679 269.798 333.55C269.801 333.443 268.328 333.568 266.924 334.633C265.513 335.682 264.979 337.062 265.087 337.089Z" fill="#192F36"/>
<path d="M263.151 331.449C263.234 331.547 264.154 330.823 265.495 330.4C266.832 329.958 268 330.005 268.006 329.879C268.034 329.771 266.798 329.52 265.363 329.992C263.924 330.449 263.068 331.375 263.151 331.449Z" fill="#192F36"/>
<path d="M261.608 325.919C261.697 326.011 262.568 325.094 264.019 324.763C265.461 324.401 266.654 324.821 266.691 324.698C266.712 324.652 266.439 324.472 265.936 324.343C265.436 324.208 264.697 324.159 263.918 324.346C263.142 324.533 262.504 324.91 262.118 325.257C261.728 325.6 261.569 325.885 261.608 325.919Z" fill="#192F36"/>
<path d="M263.694 323.72C263.719 323.714 263.691 323.447 263.522 322.999C263.354 322.555 263.038 321.92 262.44 321.288C262.139 320.997 261.805 320.604 261.21 320.5C260.912 320.448 260.535 320.604 260.382 320.917C260.228 321.22 260.244 321.549 260.32 321.849C260.67 323.039 262.016 323.913 263.409 323.714C264.801 323.487 265.81 322.38 266.062 321.196C266.102 320.898 266.093 320.549 265.86 320.27C265.626 319.987 265.209 319.966 264.952 320.086C264.415 320.325 264.151 320.745 263.887 321.076C263.384 321.776 263.133 322.435 263.007 322.895C262.881 323.355 262.872 323.622 262.897 323.625C262.976 323.659 263.118 322.567 264.13 321.257C264.39 320.951 264.685 320.567 265.077 320.42C265.271 320.346 265.461 320.377 265.574 320.515C265.688 320.65 265.712 320.895 265.669 321.135C265.452 322.104 264.525 323.116 263.348 323.288C262.173 323.469 260.992 322.699 260.701 321.742C260.633 321.512 260.63 321.263 260.716 321.089C260.802 320.92 260.977 320.834 261.17 320.855C261.578 320.901 261.934 321.23 262.225 321.503C263.4 322.668 263.614 323.763 263.694 323.72Z" fill="#192F36"/>
<path d="M203.816 314.547L204.828 329.158C204.828 329.158 190.318 335.093 190.241 337.813L218.642 336.866L217.998 314.037L203.816 314.547Z" fill="#F0525F"/>
<path d="M213.569 327.634C214.124 327.766 214.526 328.373 214.416 328.931C214.305 329.492 213.695 329.903 213.137 329.784C212.578 329.658 212.078 328.946 212.25 328.404C212.419 327.861 213.164 327.416 213.676 327.667" fill="#E1E1E1"/>
<path d="M218.642 336.866L218.485 334.568L191.314 336.335C191.314 336.335 190.069 336.927 190.241 337.813L218.642 336.866Z" fill="#E1E1E1"/>
<path d="M204.365 329.029C204.371 329.167 205.067 329.207 205.766 329.63C206.475 330.035 206.846 330.624 206.972 330.566C207.097 330.535 206.864 329.713 206.012 329.213C205.162 328.71 204.328 328.903 204.365 329.029Z" fill="#192F36"/>
<path d="M201.424 330.36C201.399 330.495 202.006 330.71 202.497 331.283C203.006 331.839 203.144 332.467 203.282 332.458C203.414 332.477 203.482 331.661 202.859 330.961C202.242 330.259 201.424 330.228 201.424 330.36Z" fill="#192F36"/>
<path d="M199.853 333.982C199.979 334.007 200.148 333.308 199.767 332.559C199.393 331.811 198.728 331.532 198.672 331.648C198.599 331.765 199.034 332.158 199.338 332.777C199.654 333.387 199.715 333.973 199.853 333.982Z" fill="#192F36"/>
<path d="M204.503 325.674C204.564 325.796 205.193 325.585 205.981 325.612C206.766 325.625 207.386 325.867 207.453 325.744C207.53 325.643 206.917 325.149 205.99 325.131C205.067 325.103 204.429 325.566 204.503 325.674Z" fill="#192F36"/>
<path d="M204.353 322.72C204.353 322.778 204.905 322.846 205.773 322.668C206.208 322.579 206.717 322.417 207.248 322.162C207.512 322.03 207.782 321.88 208.048 321.702C208.177 321.61 208.331 321.521 208.469 321.352C208.616 321.202 208.692 320.831 208.508 320.613C208.355 320.398 208.094 320.313 207.889 320.316C207.68 320.316 207.512 320.362 207.358 320.405C207.045 320.494 206.751 320.607 206.484 320.739C205.951 321.003 205.518 321.331 205.202 321.644C204.561 322.275 204.356 322.8 204.402 322.824C204.466 322.87 204.773 322.426 205.426 321.898C205.754 321.638 206.171 321.365 206.671 321.144C206.923 321.033 207.193 320.935 207.481 320.862C207.779 320.773 208.033 320.763 208.116 320.895C208.147 320.944 208.15 320.966 208.091 321.055C208.027 321.138 207.907 321.22 207.782 321.309C207.536 321.481 207.288 321.634 207.045 321.763C206.558 322.027 206.089 322.211 205.687 322.337C204.883 322.591 204.346 322.647 204.353 322.72Z" fill="#192F36"/>
<path d="M204.54 322.913C204.589 322.935 204.849 322.429 204.868 321.53C204.877 321.082 204.813 320.543 204.622 319.978C204.527 319.696 204.399 319.408 204.233 319.126C204.055 318.853 203.84 318.482 203.301 318.439C203.018 318.436 202.795 318.663 202.721 318.856C202.632 319.049 202.62 319.215 202.592 319.38C202.549 319.715 202.568 320.04 202.623 320.337C202.73 320.941 202.994 321.435 203.279 321.788C203.859 322.506 204.442 322.653 204.454 322.604C204.497 322.533 204.003 322.282 203.555 321.588C203.334 321.248 203.135 320.794 203.061 320.267C203.025 320.006 203.018 319.727 203.058 319.445C203.095 319.141 203.199 318.893 203.313 318.92C203.454 318.914 203.702 319.132 203.828 319.371C203.981 319.619 204.104 319.877 204.205 320.129C204.399 320.638 204.494 321.125 204.527 321.539C204.595 322.371 204.463 322.895 204.54 322.913Z" fill="#192F36"/>
<path d="M196.068 155.605L200.635 325.637L223.04 324.965L221.316 179.031L249.868 329.023L270.101 323.741L243.979 155.93L196.068 155.605Z" fill="#192F36"/>
<path d="M208.343 325.864C208.229 325.864 208.137 290.617 208.137 247.147C208.137 203.666 208.229 168.425 208.343 168.425C208.456 168.425 208.548 203.666 208.548 247.147C208.548 290.617 208.456 325.864 208.343 325.864Z" fill="#375A65"/>
<path d="M256.259 328.971C256.149 328.989 250.914 295.196 244.571 253.502C238.225 211.793 233.174 177.979 233.284 177.963C233.397 177.945 238.63 211.732 244.976 253.438C251.318 295.135 256.37 328.955 256.259 328.971Z" fill="#375A65"/>
<path d="M228.171 49.2786C228.834 47.4629 229.702 45.7637 230.064 43.8652C230.334 42.4543 230.757 40.335 230.189 39.0162C229.622 37.6973 228.251 36.4306 226.518 36.7895C226.086 33.9984 224.601 31.7319 221.773 30.3609C219.231 29.1279 216.734 28.5237 213.916 28.3182C213.066 28.2569 211.738 28.3121 210.971 28.6893C210.204 29.0635 209.493 29.8242 209.202 30.5971C207.72 29.4254 205.589 29.085 203.426 29.6708C201.267 30.2597 198.798 31.4252 197.85 33.4556C197.265 34.71 197.047 36.265 197.679 38.2463C198.102 39.5682 199.497 41.6385 200.795 41.157" fill="#192F36"/>
<path d="M217.246 85.9515C211.781 85.8349 207.487 81.2282 207.76 75.7688C207.898 73.0545 208.024 70.8676 208.024 70.8676C208.024 70.8676 200.629 69.9077 200.353 62.5467C200.08 55.1857 200.929 38.2463 200.929 38.2463C209.361 34.3695 219.231 35.3602 226.724 40.8349L227.837 41.6477L227.147 76.4436C227.039 81.8048 222.608 86.0619 217.246 85.9515Z" fill="#FAB9A0"/>
<path d="M208.008 70.7603C208.008 70.7603 212.67 71.021 217.538 67.7914C217.538 67.7914 215.265 73.5053 207.904 73.0269L208.008 70.7603Z" fill="#F7986E"/>
<path d="M227.119 49.297C227.245 49.2387 232.14 47.6745 232.106 52.7106C232.073 57.7498 227.021 56.6733 227.015 56.5291C227.006 56.385 227.119 49.297 227.119 49.297Z" fill="#FAB9A0"/>
<path d="M228.567 54.6306C228.588 54.6153 228.653 54.695 228.8 54.7625C228.944 54.8299 229.193 54.876 229.456 54.7809C229.99 54.5877 230.444 53.7473 230.475 52.8394C230.49 52.3824 230.398 51.9438 230.239 51.5819C230.085 51.2108 229.849 50.9532 229.582 50.9041C229.315 50.8397 229.125 50.9992 229.064 51.1403C228.993 51.2814 229.027 51.3826 228.999 51.3887C228.984 51.404 228.892 51.3059 228.935 51.0973C228.957 50.9961 229.015 50.8796 229.134 50.7814C229.257 50.6863 229.435 50.6373 229.619 50.6587C230.009 50.6863 230.355 51.0483 230.533 51.4439C230.729 51.8457 230.843 52.3364 230.827 52.8517C230.788 53.8669 230.26 54.8115 229.53 55.017C229.177 55.1091 228.88 54.9986 228.73 54.879C228.573 54.7533 228.549 54.6398 228.567 54.6306Z" fill="#F7986E"/>
<path d="M202.843 49.7448C202.837 50.303 203.303 50.7661 203.883 50.7814C204.463 50.7968 204.938 50.3612 204.944 49.8061C204.95 49.251 204.484 48.7878 203.905 48.7694C203.322 48.7541 202.849 49.1896 202.843 49.7448Z" fill="#192F36"/>
<path d="M202.583 48.5701C202.718 48.705 203.5 48.0947 204.631 48.0701C205.76 48.0272 206.607 48.5885 206.723 48.4474C206.785 48.383 206.646 48.1407 206.275 47.8861C205.913 47.6316 205.3 47.3923 204.595 47.4138C203.892 47.4353 203.306 47.7082 202.972 47.9843C202.629 48.2603 202.518 48.5087 202.583 48.5701Z" fill="#192F36"/>
<path d="M213.931 49.7356C213.925 50.2907 214.391 50.7538 214.971 50.7692C215.55 50.7845 216.026 50.349 216.032 49.7938C216.038 49.2387 215.572 48.7756 214.992 48.7572C214.409 48.7418 213.937 49.1774 213.931 49.7356Z" fill="#192F36"/>
<path d="M213.71 48.5026C213.845 48.6345 214.627 48.0272 215.759 48.0027C216.888 47.9597 217.734 48.521 217.854 48.3799C217.912 48.3155 217.774 48.0732 217.403 47.8186C217.041 47.5641 216.427 47.3248 215.722 47.3463C215.02 47.3678 214.434 47.6408 214.1 47.9168C213.756 48.1928 213.646 48.4413 213.71 48.5026Z" fill="#192F36"/>
<path d="M209.815 56.9953C209.818 56.9309 209.112 56.8266 207.968 56.7101C207.68 56.6886 207.404 56.6364 207.352 56.4402C207.278 56.2347 207.392 55.9188 207.524 55.5814C207.775 54.8729 208.042 54.1337 208.321 53.3578C209.428 50.1956 210.223 47.5978 210.097 47.5549C209.968 47.5119 208.965 50.0392 207.858 53.2013C207.591 53.9834 207.337 54.7257 207.097 55.4372C206.996 55.7654 206.815 56.1457 206.975 56.572C207.058 56.7867 207.272 56.9401 207.459 56.983C207.646 57.0352 207.809 57.0352 207.953 57.0413C209.1 57.072 209.812 57.0597 209.815 56.9953Z" fill="#192F36"/>
<path d="M213.164 57.6946C212.98 57.6885 213.008 58.9183 211.98 59.8139C210.953 60.7156 209.64 60.6114 209.634 60.7831C209.619 60.8598 209.931 61.0132 210.483 61.0162C211.026 61.0193 211.815 60.8261 212.443 60.2771C213.072 59.725 213.33 59.0073 213.36 58.5012C213.394 57.986 213.25 57.6854 213.164 57.6946Z" fill="#192F36"/>
<path d="M213.308 44.0768C213.428 44.3805 214.554 44.2056 215.885 44.3344C217.219 44.4326 218.298 44.7945 218.467 44.5154C218.544 44.3805 218.351 44.0952 217.909 43.81C217.473 43.5217 216.78 43.2579 215.98 43.1874C215.182 43.1199 214.455 43.264 213.977 43.4726C213.495 43.6842 213.256 43.9296 213.308 44.0768Z" fill="#192F36"/>
<path d="M202.917 45.2852C203.123 45.5367 203.895 45.2515 204.834 45.2147C205.769 45.1441 206.567 45.3435 206.745 45.0705C206.821 44.9386 206.69 44.6841 206.337 44.4479C205.99 44.2148 205.414 44.0308 204.77 44.0676C204.125 44.1044 203.573 44.3498 203.254 44.6227C202.929 44.8926 202.828 45.1625 202.917 45.2852Z" fill="#192F36"/>
<path d="M228.223 42.2274C228.177 44.3743 228.717 46.7513 228.392 48.8676C228.343 49.1865 227.539 50.0576 227.475 50.3766C227.089 52.2505 226.334 53.0695 225.178 51.174C224.733 50.444 224.405 48.3922 224.221 47.5641C223.718 45.3098 223.212 43.0555 222.709 40.7981C220.973 41.663 219.083 42.3378 217.145 42.2672C215.21 42.1967 213.219 41.2674 212.29 39.5652C211.413 41.111 209.806 42.2212 208.048 42.4973C206.291 42.7733 204.42 42.209 203.11 41.0036C202.478 42.071 200.923 42.4022 199.847 41.7857C198.77 41.1692 198.264 39.7676 198.571 38.5684C199.031 36.7588 200.93 35.7344 202.708 35.1639C209.658 32.928 217.443 34.3481 223.831 37.8844C224.764 38.3997 225.681 38.9671 226.42 39.7338C227.159 40.5037 228.177 41.4023 228.236 42.4666" fill="#192F36"/>
<path d="M222.933 41.6385C222.948 41.709 223.411 41.5434 224.074 41.8225C224.402 41.9544 224.767 42.1844 225.126 42.4973C225.481 42.8101 225.84 43.2211 226.27 43.6198C226.693 44.0216 227.18 44.3682 227.699 44.5185C228.217 44.678 228.714 44.6442 229.094 44.5399C229.873 44.3222 230.183 43.8928 230.146 43.8652C230.103 43.8069 229.738 44.1228 229.03 44.2394C228.683 44.2976 228.251 44.2946 227.822 44.1412C227.389 43.994 226.969 43.6873 226.564 43.3039C226.153 42.9236 225.785 42.5157 225.38 42.1936C224.978 41.8685 224.555 41.6446 224.175 41.5312C223.383 41.3011 222.896 41.6048 222.933 41.6385Z" fill="#375A65"/>
<path d="M223.791 43.8407C223.801 43.8989 224.169 43.8468 224.589 44.1934C224.797 44.3559 224.997 44.6136 225.23 44.9233C225.46 45.23 225.785 45.5735 226.187 45.8128C226.993 46.3158 227.889 46.3925 228.481 46.2974C229.085 46.2054 229.401 45.9845 229.38 45.9385C229.355 45.8741 229.012 45.9876 228.456 45.9937C227.907 46.006 227.125 45.8895 226.417 45.4447C225.696 45.0399 225.337 44.2762 224.764 43.9419C224.199 43.5984 223.755 43.7885 223.791 43.8407Z" fill="#375A65"/>
<path d="M204.368 29.5205C204.371 29.496 204.131 29.4592 203.724 29.5819C203.322 29.7015 202.754 30.0205 202.303 30.6461C201.402 31.9098 201.193 34.1549 201.893 36.3233C202.601 38.5316 204.211 40.0498 205.499 40.7583C206.143 41.1324 206.714 41.3349 207.113 41.4453C207.508 41.5588 207.738 41.5772 207.744 41.5526C207.769 41.476 206.87 41.2766 205.659 40.4976C204.454 39.7431 202.975 38.2801 202.303 36.1883C201.638 34.1303 201.797 31.9926 202.558 30.8179C202.935 30.229 203.426 29.8978 203.782 29.7383C204.144 29.5788 204.374 29.5573 204.368 29.5205Z" fill="#375A65"/>
<path d="M198.273 32.5753C198.224 32.5784 198.178 33.1274 198.338 33.9954C198.491 34.8633 198.893 36.0411 199.641 37.1728C200.396 38.2985 201.325 39.1266 202.067 39.605C202.807 40.0835 203.331 40.2552 203.349 40.2123C203.429 40.0958 201.436 39.1296 200 36.9336C198.531 34.7621 198.408 32.5477 198.273 32.5753Z" fill="#375A65"/>
<path d="M157.666 135.187L146.894 135.73C145.52 135.801 144.447 136.945 144.474 138.322C144.526 140.781 144.94 144.152 146.857 143.833L148.087 138.469L157.028 146.357C157.932 147.176 159.049 147.722 160.248 147.934L162.349 147.719L157.666 135.187Z" fill="#FAB9A0"/>
<path d="M209.186 77.4833L203.555 79.345L200.761 126.106V167.581L235.333 171.409L235.735 111.595L233.502 81.8263L228.22 75.5143L209.186 77.4833Z" fill="#E1E1E1"/>
<path d="M207.453 79.7223V75.1922L227.996 72.3306L227.171 82.7709L222.451 90.9539L214.737 91.3832L209.161 87.942L207.453 79.7223Z" fill="#E1E1E1"/>
<path d="M209.293 79.1917C209.18 79.1886 209.128 78.2623 209.177 77.1214C209.226 75.9835 209.358 75.0634 209.471 75.0695C209.582 75.0726 209.634 76.0019 209.585 77.1398C209.536 78.2777 209.407 79.1978 209.293 79.1917Z" fill="#192F36"/>
<path d="M214.431 78.8205C214.32 78.8144 214.29 77.7777 214.363 76.5049C214.437 75.2321 214.59 74.2077 214.701 74.2138C214.814 74.2199 214.845 75.2566 214.771 76.5294C214.698 77.7992 214.544 78.8267 214.431 78.8205Z" fill="#192F36"/>
<path d="M219.399 78.2991C219.289 78.2899 219.277 77.195 219.375 75.8516C219.473 74.5083 219.645 73.4256 219.758 73.4317C219.872 73.4409 219.881 74.5359 219.783 75.8823C219.685 77.2257 219.513 78.3083 219.399 78.2991Z" fill="#192F36"/>
<path d="M224.172 77.517C224.061 77.5201 223.93 76.4804 223.991 75.1983C224.049 73.9132 224.273 72.8919 224.38 72.9042C224.497 72.9195 224.454 73.95 224.399 75.2167C224.341 76.4804 224.285 77.5109 224.172 77.517Z" fill="#192F36"/>
<path d="M221.89 97.2812C221.918 97.2935 221.816 97.5665 221.617 98.0511C221.421 98.5357 221.111 99.2257 220.709 100.069C219.909 101.762 218.722 104.059 217.262 106.516C215.802 108.97 214.351 111.114 213.247 112.623C212.695 113.377 212.238 113.978 211.907 114.386C211.575 114.791 211.385 115.009 211.361 114.99C211.312 114.954 211.971 114.006 213.011 112.457C214.051 110.908 215.458 108.752 216.912 106.305C218.363 103.86 219.59 101.594 220.452 99.9404C221.313 98.2903 221.835 97.2567 221.89 97.2812Z" fill="#192F36"/>
<path d="M228.113 74.7874L233.692 77.4741L244.46 80.1056C249.19 80.9276 252.435 85.3258 251.824 90.0859L246.184 134.061L252.916 176.697L226.221 175.899L224.653 160.04V116.073L228.113 74.7874Z" fill="#375A65"/>
<path d="M224.653 126.21C224.641 126.207 224.669 126.02 224.733 125.664C224.81 125.271 224.911 124.756 225.037 124.118C225.328 122.735 225.73 120.809 226.224 118.45C227.279 113.632 228.714 107.053 230.3 99.7839C230.744 97.7811 231.18 95.8336 231.594 93.9627L231.646 94.1436C231.014 93.4842 230.398 92.837 229.797 92.2083L229.692 92.1009L229.769 91.9752C230.876 90.135 231.916 88.4021 232.876 86.8072L232.864 86.9636C231.456 83.553 230.284 80.7099 229.444 78.6733C229.058 77.7041 228.748 76.9251 228.515 76.3485C228.306 75.8118 228.205 75.5234 228.22 75.5142C228.236 75.5081 228.374 75.7841 228.61 76.3086C228.864 76.876 229.202 77.6397 229.628 78.5936C230.502 80.6209 231.72 83.4426 233.18 86.8287L233.213 86.9084L233.17 86.9851C232.223 88.5861 231.195 90.322 230.103 92.1715L230.076 91.9384C230.68 92.5671 231.3 93.2082 231.934 93.8676L232.008 93.9442L231.984 94.0485C231.573 95.9194 231.14 97.8701 230.698 99.8729C229.067 107.133 227.588 113.702 226.509 118.515C225.96 120.861 225.512 122.775 225.193 124.152C225.037 124.787 224.911 125.293 224.813 125.682C224.724 126.032 224.669 126.213 224.653 126.21Z" fill="#192F36"/>
<path d="M158.123 133.414L181.742 120.247L193.185 89.3835C194.783 85.0712 198.102 81.6177 202.347 79.848L205.383 78.5813L205.398 159.843L206.006 179.095L193.21 175.261L199.737 136.57L197.479 117.527L195.237 126.737C194.437 130.031 192.333 132.862 189.41 134.574L164.821 147.345L158.123 133.414Z" fill="#375A65"/>
<path d="M158.411 134.012L156.423 134.604L162.015 147.934L164.619 146.925L158.411 134.012Z" fill="#E1E1E1"/>
<path d="M186.014 125.725C185.895 125.765 185.487 124.207 184.248 122.738C183.03 121.247 181.573 120.56 181.635 120.45C181.653 120.349 183.266 120.901 184.561 122.474C185.87 124.035 186.116 125.728 186.014 125.725Z" fill="#192F36"/>
<path d="M160.957 133.586C160.981 133.638 160.84 133.746 160.825 133.973C160.8 134.209 160.963 134.466 161.272 134.371C161.585 134.282 161.582 133.979 161.435 133.795C161.3 133.611 161.122 133.598 161.116 133.537C161.088 133.494 161.334 133.362 161.634 133.586C161.769 133.69 161.913 133.884 161.904 134.157C161.898 134.436 161.662 134.687 161.389 134.764C161.119 134.85 160.782 134.761 160.625 134.531C160.472 134.307 160.487 134.068 160.546 133.905C160.677 133.555 160.953 133.534 160.957 133.586Z" fill="#192F36"/>
<path d="M162.861 132.783C162.886 132.835 162.745 132.942 162.732 133.169C162.708 133.405 162.87 133.663 163.177 133.568C163.49 133.479 163.49 133.175 163.34 132.991C163.205 132.807 163.03 132.795 163.021 132.737C162.993 132.691 163.238 132.559 163.539 132.783C163.674 132.887 163.818 133.08 163.809 133.353C163.803 133.629 163.567 133.887 163.294 133.96C163.024 134.046 162.689 133.957 162.533 133.727C162.377 133.503 162.395 133.264 162.45 133.101C162.582 132.752 162.861 132.73 162.861 132.783Z" fill="#192F36"/>
<path d="M205.383 127.464C205.371 127.467 205.334 127.292 205.282 126.961C205.224 126.59 205.153 126.109 205.064 125.514C204.886 124.204 204.641 122.394 204.337 120.18C203.761 115.628 202.972 109.421 202.101 102.563C201.982 101.59 201.865 100.627 201.749 99.6827L201.742 99.6337L201.761 99.5846C202.356 98.0695 202.932 96.6034 203.485 95.1987L203.488 95.349C202.893 93.9841 202.322 92.6837 201.785 91.4569L201.758 91.3986L201.776 91.3373C202.822 87.5556 203.702 84.375 204.334 82.087C204.647 81.0074 204.895 80.1363 205.082 79.4922C205.26 78.8942 205.365 78.5752 205.383 78.5813C205.405 78.5875 205.334 78.9126 205.19 79.5198C205.027 80.1731 204.809 81.0503 204.54 82.1422C203.942 84.4394 203.11 87.6322 202.123 91.4293L202.114 91.3127C202.659 92.5334 203.239 93.8338 203.843 95.1926L203.877 95.2631L203.846 95.3428C203.301 96.7476 202.73 98.2167 202.138 99.7318L202.15 99.6337C202.267 100.578 202.387 101.538 202.506 102.514C203.331 109.378 204.076 115.589 204.625 120.146C204.874 122.367 205.076 124.182 205.22 125.495C205.279 126.093 205.328 126.578 205.362 126.952C205.389 127.286 205.398 127.464 205.383 127.464Z" fill="#192F36"/>
<path d="M199.703 136.797C199.688 136.797 199.66 136.665 199.62 136.411C199.58 136.11 199.528 135.745 199.467 135.301C199.341 134.273 199.169 132.893 198.964 131.212C198.547 127.759 197.958 122.989 197.252 117.732C196.547 112.469 195.854 107.715 195.348 104.274C195.102 102.6 194.903 101.222 194.753 100.198C194.694 99.7533 194.648 99.3852 194.608 99.0847C194.581 98.8301 194.572 98.6951 194.584 98.6921C194.599 98.6921 194.636 98.8209 194.688 99.0724C194.75 99.3699 194.823 99.7318 194.912 100.17C195.096 101.127 195.342 102.514 195.633 104.228C196.213 107.66 196.952 112.411 197.66 117.677C198.366 122.94 198.905 127.716 199.252 131.182C199.424 132.911 199.553 134.313 199.626 135.285C199.657 135.73 199.681 136.101 199.703 136.405C199.715 136.659 199.715 136.794 199.703 136.797Z" fill="#192F36"/>
<path d="M196.439 165.683C196.473 165.665 196.568 165.984 196.985 166.342C197.387 166.689 198.194 167.054 199.141 166.827C200.08 166.606 201.003 165.729 201.479 164.527C201.969 163.321 202.028 161.837 202.138 160.303C202.233 158.779 202.196 157.298 201.699 156.092C201.221 154.881 200.288 154.077 199.559 153.387C198.81 152.706 198.234 152.093 197.924 151.608C197.608 151.124 197.519 150.814 197.537 150.805C197.571 150.789 197.709 151.075 198.053 151.513C198.393 151.958 198.979 152.516 199.752 153.172C200.5 153.832 201.503 154.642 202.046 155.948C202.601 157.236 202.641 158.785 202.546 160.328C202.432 161.861 202.371 163.38 201.825 164.671C201.301 165.953 200.27 166.898 199.206 167.109C198.132 167.321 197.28 166.867 196.878 166.462C196.669 166.25 196.559 166.048 196.495 165.91C196.442 165.766 196.424 165.686 196.439 165.683Z" fill="#192F36"/>
<path d="M187.665 135.187C187.665 135.187 188.425 126.182 195.578 125.348C195.578 125.348 195.709 132.687 187.665 135.187Z" fill="#192F36"/>
<path d="M225.886 168.909C226.355 169.222 246.65 182.494 246.65 182.494L248.994 180.616L250.101 150.173L230.324 135.187L227.604 136.123L225.886 168.909Z" fill="#77C63A"/>
<path d="M230.106 135.617L230.916 168.569H226.552L228.015 136.27L230.106 135.617Z" fill="#E1E1E1"/>
<path d="M236.639 176.129C236.639 176.129 237.103 177.586 238.983 177.724C239.041 177.727 239.099 177.77 239.154 177.865C239.575 178.586 240.292 179.098 241.127 179.095C241.774 179.092 242.55 178.942 243.353 178.451C244.439 177.792 246.371 173.455 246.371 173.455L250.95 163.257L243.249 161.174L233.465 164.223C233.465 164.401 231.177 173.663 231.177 173.663C231.177 173.663 233.03 174.185 233.925 172.207C234.821 170.231 235.652 168.977 235.652 168.977L236.382 173.145L233.6 174.096C233.6 174.096 233.263 175.639 234.79 176.212L236.639 176.129Z" fill="#FAB9A0"/>
<path d="M240.093 104.504L252.916 128.105L242.479 159.083L254.085 165.615L268.831 131.16C269.923 128.605 269.877 125.704 268.706 123.186L250.613 84.3229L240.093 104.504Z" fill="#375A65"/>
<path d="M242.479 159.083L241.396 161.484L252.346 167.385L253.493 165.284L242.479 159.083Z" fill="#E1E1E1"/>
<path d="M242.479 159.083C242.473 159.08 242.485 159.027 242.513 158.923C242.55 158.8 242.596 158.653 242.648 158.469C242.786 158.04 242.97 157.457 243.203 156.715C243.712 155.163 244.436 152.955 245.335 150.207C247.19 144.646 249.77 136.905 252.726 128.041L252.745 128.206C251.251 125.673 249.717 122.992 248.169 120.226C245.344 115.178 242.746 110.313 240.525 105.817C239.431 103.56 238.406 101.406 237.541 99.3454C236.603 97.2904 236.367 95.1312 236.474 93.2296C236.597 91.325 236.977 89.6105 237.618 88.2272C238.253 86.8409 239.096 85.8043 239.881 85.0835C240.679 84.3658 241.415 83.9579 241.924 83.734C242.436 83.504 242.731 83.4457 242.731 83.4457C242.771 83.5101 241.544 83.7585 239.992 85.2C239.237 85.9239 238.428 86.9544 237.826 88.3223C237.219 89.678 236.863 91.374 236.762 93.245C236.679 95.1159 236.919 97.2076 237.854 99.2135C238.728 101.259 239.762 103.403 240.863 105.648C243.099 110.129 245.703 114.981 248.527 120.03C250.073 122.79 251.604 125.471 253.088 128.004L253.134 128.084L253.104 128.17C250.095 137.015 247.466 144.741 245.577 150.289C244.632 153.022 243.872 155.215 243.335 156.761C243.074 157.491 242.869 158.067 242.718 158.491C242.648 158.672 242.593 158.816 242.547 158.935C242.51 159.037 242.485 159.086 242.479 159.083Z" fill="#192F36"/>
<path d="M261.584 127.884C261.55 127.943 261.096 127.697 260.32 127.44C259.547 127.179 258.434 126.946 257.192 126.98C255.95 127.023 254.852 127.323 254.097 127.633C253.34 127.94 252.901 128.213 252.864 128.157C252.837 128.121 253.22 127.759 253.978 127.369C254.729 126.98 255.876 126.615 257.18 126.572C258.483 126.532 259.649 126.826 260.425 127.17C261.204 127.51 261.611 127.848 261.584 127.884Z" fill="#192F36"/>
<path d="M237.529 98.8884L246.742 129.719L248.043 119.582L237.529 98.8884Z" fill="#192F36"/>
<path d="M252.748 159.457C252.772 159.509 252.631 159.613 252.619 159.843C252.591 160.079 252.754 160.334 253.067 160.242C253.376 160.153 253.373 159.849 253.226 159.665C253.091 159.481 252.916 159.469 252.907 159.408C252.88 159.365 253.125 159.233 253.426 159.457C253.56 159.561 253.705 159.754 253.695 160.027C253.689 160.303 253.453 160.558 253.18 160.635C252.91 160.72 252.576 160.632 252.42 160.401C252.263 160.178 252.282 159.938 252.337 159.776C252.469 159.426 252.748 159.402 252.748 159.457Z" fill="#192F36"/>
<path d="M253.674 157.236C253.699 157.288 253.557 157.396 253.542 157.623C253.521 157.859 253.683 158.116 253.99 158.021C254.303 157.932 254.3 157.632 254.152 157.445C254.017 157.261 253.84 157.249 253.833 157.19C253.806 157.144 254.051 157.012 254.352 157.236C254.487 157.341 254.631 157.534 254.622 157.807C254.616 158.086 254.379 158.34 254.106 158.414C253.837 158.5 253.502 158.411 253.343 158.181C253.189 157.957 253.208 157.718 253.263 157.555C253.395 157.206 253.671 157.184 253.674 157.236Z" fill="#192F36"/>
<path d="M266.276 117.969C264.902 118.692 264.421 120.714 264.58 122.259C264.74 123.805 265.307 125.308 265.267 126.86C265.24 127.97 264.902 129.044 264.678 130.13C264.455 131.215 264.353 132.381 264.777 133.405C265.2 134.43 266.286 135.252 267.374 135.046L268.463 132.847C270.19 129.357 270.132 125.25 268.31 121.809L266.276 117.969Z" fill="#192F36"/>
<mask id="mask2_119_622" style="mask-type:alpha" maskUnits="userSpaceOnUse" x="331" y="265" width="29" height="20">
<path d="M331.341 265.388H360V284.232H331.341V265.388Z" fill="white"/>
</mask>
<g mask="url(#mask2_119_622)">
<path d="M333.5 283.713C334.206 281.266 335.718 278.901 338.058 277.892C340.49 276.843 343.309 277.441 345.796 278.346C348.29 279.248 350.734 280.459 353.378 280.622C356.022 280.787 359.006 279.533 359.798 277.006C360.543 274.629 359.11 272.092 357.313 270.365C353.544 266.737 347.879 265.197 342.791 266.418C337.702 267.642 333.356 271.583 331.642 276.527L333.5 283.713Z" fill="#F0525F"/>
<path d="M333.5 283.713L331.642 276.527C333.356 271.583 337.702 267.642 342.791 266.418C343.95 266.142 345.137 266.007 346.327 266.007C350.36 266.007 354.403 267.562 357.313 270.366C358.776 271.773 359.997 273.715 360 275.672C360 276.116 359.936 276.564 359.798 277.006C359.052 279.386 356.359 280.637 353.838 280.637C353.685 280.637 353.532 280.631 353.378 280.622C350.734 280.459 348.29 279.248 345.796 278.346C344.244 277.782 342.564 277.337 340.929 277.337C339.941 277.337 338.972 277.5 338.058 277.892C335.718 278.901 334.206 281.266 333.5 283.713Z" fill="#56C300"/>
</g>
<path d="M312.552 294.334C308.673 290.648 308.866 284.235 310.801 279.245C312.737 274.257 316.96 270.427 321.677 267.899C330.823 263.007 342.254 262.636 351.697 266.927C347.057 267.081 342.573 269.715 340.178 273.693C338.052 277.223 337.58 281.508 335.822 285.238C333.866 289.39 330.274 292.749 325.999 294.417C321.72 296.089 316.807 296.058 312.552 294.334Z" fill="#77C63A"/>
<path d="M310.688 272.193C306.391 267.123 305.82 258.983 306.452 252.371C307.084 245.755 308.618 239.1 307.575 232.536C306.958 228.65 305.449 224.936 304.94 221.035C304.431 217.13 305.152 212.717 308.176 210.196C311.654 207.3 317.126 207.984 320.742 210.702C324.361 213.422 326.456 217.695 327.986 221.952C331.351 231.306 332.584 241.676 329.82 251.227C327.057 260.775 320.573 269.31 311.059 272.193" fill="#77C63A"/>
<path d="M308.627 313.789C308.615 313.789 308.608 313.59 308.608 313.206C308.615 312.823 308.608 312.258 308.642 311.532C308.697 310.078 308.835 307.974 309.164 305.391C309.489 302.809 310.001 299.748 310.814 296.399C311.611 293.043 312.982 289.467 314.914 285.986C316.859 282.508 319.227 279.499 321.619 277.024C324.023 274.546 326.48 272.617 328.652 271.178C329.722 270.436 330.762 269.875 331.654 269.35C332.571 268.869 333.369 268.476 334.025 268.16C334.672 267.887 335.188 267.669 335.571 267.51C335.924 267.366 336.114 267.295 336.117 267.304C336.123 267.317 335.942 267.409 335.599 267.574C335.224 267.752 334.718 267.985 334.083 268.283C333.442 268.617 332.654 269.031 331.752 269.525C330.872 270.062 329.848 270.635 328.79 271.387C326.652 272.844 324.229 274.779 321.858 277.251C319.49 279.723 317.15 282.707 315.227 286.161C311.277 293.071 310.194 300.334 309.412 305.422C309.056 307.995 308.875 310.09 308.78 311.538C308.737 312.24 308.707 312.795 308.682 313.209C308.657 313.59 308.639 313.789 308.627 313.789Z" fill="#192F36"/>
<path d="M271.58 252.193C263.633 256.987 263.657 261.351 264.985 265.47C266.31 269.589 271.19 272.451 275.233 270.908C277.517 270.037 279.174 268.05 280.588 266.053C282.002 264.059 283.33 261.922 285.314 260.486C287.295 259.051 290.169 258.505 292.16 259.925L271.58 252.193Z" fill="#F0525F"/>
<path d="M272.895 271.332C269.485 271.332 266.062 268.817 264.985 265.47C264.596 264.268 264.32 263.044 264.32 261.796C264.323 258.766 265.952 255.588 271.58 252.193L290.046 259.131C289.838 259.109 289.626 259.097 289.415 259.097C287.979 259.097 286.489 259.637 285.314 260.486C283.33 261.922 282.001 264.059 280.588 266.053C279.174 268.05 277.517 270.037 275.232 270.908C274.472 271.2 273.684 271.332 272.895 271.332ZM292.16 259.925L290.046 259.131C290.801 259.22 291.525 259.474 292.16 259.925Z" fill="#56C400"/>
<path d="M265.629 257.45C267.706 254.579 272.84 253.748 276.082 255.18C279.324 256.613 281.698 259.453 283.823 262.29C285.949 265.124 288.016 268.12 290.96 270.092C293.905 272.068 298.018 272.779 300.95 270.795C302.876 269.488 303.995 267.219 304.345 264.915C304.695 262.615 304.357 260.266 303.876 257.987C303.176 254.656 302.032 251.175 299.364 249.055C296.392 246.697 292.267 246.586 288.473 246.709C284.121 246.853 279.704 247.178 275.619 248.687C271.533 250.196 267.365 253.454 265.629 257.45Z" fill="#77C63A"/>
<path d="M302.02 307.425C302.014 307.425 302.008 307.366 301.999 307.253C301.993 307.115 301.983 306.946 301.974 306.738C301.956 306.259 301.934 305.603 301.904 304.766C301.855 303.024 301.784 300.555 301.695 297.512C301.6 294.451 301.474 290.804 301.253 286.762C301.026 282.723 300.729 278.275 300.116 273.65C299.803 271.341 299.438 269.083 298.797 266.992C298.153 264.9 297.297 262.949 296.361 261.164C295.42 259.382 294.386 257.76 293.288 256.343C292.187 254.929 291.052 253.699 289.936 252.659C287.682 250.598 285.522 249.338 283.989 248.605C283.599 248.427 283.262 248.252 282.955 248.129C282.655 248.013 282.397 247.911 282.179 247.829C281.989 247.749 281.833 247.684 281.704 247.635C281.6 247.589 281.544 247.565 281.544 247.559C281.548 247.553 281.606 247.568 281.716 247.602C281.845 247.641 282.004 247.697 282.204 247.761C282.428 247.835 282.688 247.927 282.995 248.031C283.305 248.144 283.652 248.31 284.047 248.479C285.608 249.178 287.807 250.417 290.105 252.475C291.242 253.509 292.402 254.742 293.524 256.162C294.641 257.585 295.693 259.217 296.653 261.011C297.604 262.811 298.472 264.771 299.131 266.887C299.784 269.016 300.152 271.282 300.465 273.604C301.082 278.248 301.37 282.698 301.582 286.747C301.784 290.795 301.882 294.442 301.947 297.506C302.011 300.57 302.032 303.051 302.042 304.763C302.045 305.6 302.045 306.259 302.045 306.738C302.042 306.946 302.039 307.115 302.036 307.25C302.032 307.366 302.026 307.425 302.02 307.425Z" fill="#192F36"/>
<path d="M304.882 311.016C304.882 311.016 304.437 309.835 304.011 307.606C303.597 305.376 303.284 302.07 303.646 298.018C303.986 293.963 305.023 289.209 306.673 284.106C308.305 278.993 310.519 273.528 312.411 267.651C313.347 264.71 314.144 261.799 314.693 258.944C315.245 256.088 315.595 253.3 315.819 250.635C316.264 245.304 316.202 240.474 316.073 236.428C315.935 232.383 315.721 229.11 315.586 226.847C315.521 225.733 315.469 224.862 315.432 224.243C315.42 223.961 315.408 223.737 315.402 223.565C315.396 223.412 315.396 223.332 315.402 223.332C315.408 223.332 315.42 223.409 315.436 223.562C315.454 223.734 315.475 223.955 315.503 224.237C315.555 224.856 315.629 225.727 315.724 226.838C315.902 229.098 316.153 232.368 316.322 236.419C316.484 240.468 316.573 245.311 316.147 250.663C315.929 253.337 315.586 256.14 315.034 259.011C314.488 261.882 313.69 264.808 312.749 267.758C310.85 273.653 308.63 279.116 306.986 284.207C305.323 289.289 304.265 294.012 303.897 298.04C303.505 302.067 303.775 305.354 304.146 307.581C304.342 308.695 304.52 309.556 304.676 310.13C304.744 310.406 304.796 310.621 304.836 310.789C304.869 310.94 304.885 311.016 304.882 311.016Z" fill="#192F36"/>
<path d="M324.581 314.608H287.268L286.418 307.425H324.581V314.608Z" fill="#375A65"/>
<path d="M291.273 313.789L295.938 335.335H316.212L320.576 313.789H291.273Z" fill="#375A65"/>
<path d="M324.581 314.608C324.581 314.706 316.377 314.764 306.259 314.734C296.137 314.706 287.939 314.605 287.939 314.507C287.939 314.408 296.141 314.35 306.262 314.378C316.377 314.408 324.581 314.51 324.581 314.608Z" fill="#375A65"/>
<path d="M318.178 325.241C318.128 325.315 317.076 324.229 314.893 323.358C313.807 322.929 312.436 322.591 310.896 322.558C309.351 322.506 307.676 322.877 305.983 323.459C304.281 324.033 302.695 324.702 301.146 325.073C299.594 325.407 298.147 325.382 296.969 325.198C295.785 325.011 294.868 324.662 294.282 324.346C293.991 324.18 293.77 324.048 293.635 323.935C293.494 323.831 293.423 323.769 293.432 323.76C293.451 323.732 293.748 323.944 294.343 324.223C294.938 324.493 295.843 324.8 297.003 324.947C298.159 325.097 299.573 325.094 301.073 324.751C302.566 324.38 304.155 323.702 305.869 323.122C307.578 322.533 309.314 322.159 310.902 322.23C312.491 322.285 313.89 322.656 314.985 323.125C316.092 323.585 316.892 324.14 317.417 324.545C317.681 324.748 317.874 324.919 317.997 325.045C318.122 325.165 318.184 325.235 318.178 325.241Z" fill="#192F36"/>
<path d="M317.892 326.68C317.846 326.753 316.831 325.701 314.739 324.821C313.696 324.392 312.375 324.057 310.884 324.03C309.393 323.987 307.771 324.324 306.133 324.882C304.489 325.432 302.946 326.069 301.474 326.468C300.002 326.87 298.613 327.011 297.456 326.919C296.297 326.839 295.395 326.511 294.825 326.214C294.543 326.054 294.328 325.925 294.196 325.818C294.061 325.714 293.994 325.655 294.003 325.646C294.021 325.619 294.309 325.824 294.883 326.088C295.46 326.342 296.346 326.622 297.472 326.668C298.597 326.726 299.947 326.563 301.385 326.152C302.827 325.744 304.357 325.103 306.02 324.548C307.676 323.984 309.357 323.64 310.893 323.702C312.427 323.748 313.782 324.122 314.837 324.591C315.896 325.054 316.662 325.603 317.165 325.999C317.417 326.201 317.601 326.367 317.72 326.487C317.843 326.606 317.901 326.674 317.892 326.68Z" fill="white"/>
<path d="M318.545 323.815C318.503 323.88 317.408 322.782 315.172 321.825C314.061 321.355 312.666 320.935 311.077 320.84C309.485 320.73 307.756 321.135 306.007 321.736C304.25 322.325 302.618 323.039 301.002 323.37C299.382 323.662 297.898 323.573 296.683 323.377C295.469 323.165 294.521 322.818 293.911 322.499C293.61 322.331 293.38 322.196 293.239 322.082C293.092 321.972 293.021 321.91 293.027 321.901C293.049 321.874 293.356 322.095 293.972 322.374C294.589 322.65 295.527 322.953 296.723 323.128C297.916 323.288 299.376 323.349 300.937 323.048C302.486 322.717 304.124 321.993 305.894 321.398C307.654 320.794 309.449 320.38 311.096 320.515C312.733 320.628 314.156 321.085 315.273 321.595C316.399 322.098 317.22 322.674 317.763 323.094C318.033 323.306 318.233 323.481 318.361 323.61C318.49 323.735 318.555 323.806 318.545 323.815Z" fill="white"/>
<path d="M324.91 314.639C324.91 314.737 316.518 314.816 306.167 314.816C295.809 314.816 287.421 314.737 287.421 314.639C287.421 314.54 295.809 314.461 306.167 314.461C316.518 314.461 324.91 314.54 324.91 314.639Z" fill="#192F36"/>
<path d="M39.7798 306.443C41.1231 308.357 43.7301 307.725 44.9386 306.554C46.1501 305.385 46.6592 303.689 47.1254 302.073C48.1897 298.377 49.2601 294.5 48.4688 290.74C48.2326 289.614 47.8124 288.495 47.0211 287.658C46.2329 286.826 45.0183 286.329 43.905 286.621C42.5892 286.967 41.7734 288.259 41.1814 289.482C39.4455 293.083 38.5253 297.076 38.5131 301.076C38.5069 302.941 38.7278 304.901 39.7798 306.443Z" fill="#F0525F"/>
<path d="M42.1691 307.664C41.2766 307.664 40.3964 307.32 39.7799 306.443C38.7432 304.925 38.5132 303.002 38.5132 301.162C38.5132 301.134 38.5132 301.104 38.5132 301.076C38.5255 297.076 39.4456 293.083 41.1815 289.482C41.7735 288.259 42.5893 286.967 43.9051 286.621C44.1259 286.563 44.3467 286.538 44.5706 286.538C45.4785 286.538 46.3894 286.989 47.0212 287.658C47.8125 288.495 48.2327 289.614 48.4689 290.74C48.6621 291.651 48.7449 292.568 48.7419 293.488C48.7419 296.368 47.9321 299.273 47.1255 302.073C46.6593 303.689 46.1502 305.385 44.9387 306.554C44.2854 307.189 43.2211 307.664 42.1691 307.664Z" fill="#77C63A"/>
<path d="M44.8099 316.147C47.0029 315.016 49.5884 314.868 52.0237 315.27C53.3333 315.488 54.6981 315.881 55.5876 316.862C56.477 317.847 56.6488 319.576 55.6244 320.423C55.0171 320.923 54.1675 321 53.3762 320.99C51.4685 320.969 49.3522 320.632 47.831 321.782C46.9599 322.435 46.3833 323.524 45.3405 323.846C44.3253 324.162 43.1782 323.561 42.6384 322.644C42.0986 321.726 42.0802 320.576 42.3317 319.543C42.3317 319.543 42.5986 317.288 44.8099 316.147Z" fill="#77C63A"/>
<path d="M36.0932 309.191C37.5532 307.465 37.8292 304.94 37.179 302.775C36.5318 300.607 35.0658 298.766 33.3789 297.26C31.4006 295.497 29.0727 294.123 26.5731 293.243C25.5885 292.899 24.5488 292.626 23.5121 292.724C22.4724 292.822 21.4265 293.353 20.9419 294.279C20.2242 295.644 20.9113 297.3 21.6566 298.653C22.9631 301.036 24.4599 303.315 26.1253 305.462C27.4656 307.189 29.0022 308.894 31.0418 309.673C33.0844 310.455 35.2069 310.363 36.2895 308.946" fill="#77C63A"/>
<path d="M39.6877 335.353C39.7153 335.357 39.7552 335.047 39.8104 334.485C39.8718 333.851 39.9484 333.053 40.0405 332.105C40.1539 331.106 40.2981 329.916 40.5772 328.621C40.8532 327.327 41.2857 325.925 41.8439 324.505C42.4205 323.094 43.1229 321.809 43.9448 320.782C44.7607 319.751 45.7084 319.006 46.6009 318.574C47.4904 318.135 48.2878 317.957 48.8399 317.877C49.395 317.819 49.7048 317.776 49.7048 317.752C49.7048 317.727 49.395 317.724 48.8215 317.739C48.2571 317.776 47.426 317.92 46.4905 318.347C45.552 318.761 44.5429 319.521 43.6872 320.573C42.8254 321.622 42.0954 322.932 41.5096 324.37C40.9452 325.818 40.5159 327.232 40.2521 328.554C39.9883 329.873 39.8687 331.075 39.789 332.084C39.7123 333.093 39.6847 333.909 39.6724 334.476C39.6571 335.041 39.6663 335.353 39.6877 335.353Z" fill="#192F36"/>
<path d="M39.8536 333.526C39.8658 333.526 39.872 333.384 39.875 333.121C39.875 332.817 39.875 332.437 39.872 331.967C39.872 330.961 39.872 329.514 39.9241 327.72C40.0131 324.134 40.3228 319.187 40.9178 313.749C41.519 308.308 42.3134 303.416 43.0403 299.904C43.212 299.024 43.3838 298.233 43.5463 297.54C43.7027 296.843 43.8346 296.245 43.9604 295.761C44.0708 295.304 44.1597 294.933 44.2333 294.638C44.2885 294.377 44.3162 294.239 44.3039 294.236C44.2916 294.233 44.2425 294.365 44.1628 294.617C44.0739 294.908 43.9634 295.273 43.8254 295.724C43.6782 296.205 43.5249 296.8 43.35 297.494C43.1691 298.184 42.9789 298.972 42.7918 299.852C42.0005 303.358 41.1632 308.256 40.5621 313.709C39.964 319.159 39.6941 324.122 39.6695 327.716C39.6481 329.511 39.6879 330.965 39.734 331.971C39.7616 332.44 39.7861 332.82 39.8045 333.124C39.8229 333.388 39.8413 333.526 39.8536 333.526Z" fill="#192F36"/>
<path d="M39.878 323.956C39.9026 323.953 39.8964 323.527 39.8688 322.748C39.8228 321.972 39.7186 320.852 39.4977 319.478C39.2677 318.107 38.9426 316.479 38.4365 314.712C37.9519 312.936 37.2864 311.022 36.4429 309.075C34.7898 305.152 32.5447 301.947 30.591 299.963C30.134 299.435 29.6218 299.055 29.2139 298.681C29.0022 298.503 28.8151 298.325 28.625 298.184C28.4348 298.052 28.2569 297.929 28.0913 297.816C27.4503 297.377 27.0884 297.144 27.0761 297.165C27.0178 297.242 28.5146 298.125 30.4069 300.137C32.2901 302.143 34.4739 305.327 36.1117 309.216C36.949 311.148 37.6176 313.047 38.1175 314.804C38.639 316.552 38.9855 318.166 39.2493 319.521C39.4977 320.88 39.6419 321.99 39.7278 322.76C39.8014 323.53 39.8535 323.956 39.878 323.956Z" fill="#192F36"/>
<path d="M155.65 6.631C155.65 6.6218 155.785 6.61873 156.052 6.62179C156.347 6.62793 156.736 6.63713 157.227 6.65247C157.748 6.64327 158.383 6.72301 159.131 6.83956C159.506 6.89783 159.914 6.93464 160.34 7.02358C160.766 7.12786 161.217 7.24134 161.692 7.35789C163.582 7.88236 165.888 8.71353 168.225 10.2808C170.565 11.8174 172.964 14.0441 174.847 17.0468C176.733 20.0249 178.15 23.7759 178.328 27.9502C178.586 32.0969 177.629 36.6545 175.231 40.6908C172.909 44.77 169.017 48.1928 164.318 50.1864C161.962 51.1801 159.38 51.7199 156.751 51.8518C154.12 52.0359 151.418 51.6709 148.835 50.8673L148.599 50.7937L148.783 50.7906C144.256 52.3579 139.827 53.8945 135.555 55.3728L135.015 55.5599L135.187 55.017C136.371 51.2108 137.518 47.5273 138.619 43.9971L138.677 44.2608C136.138 41.4054 134.417 38.0316 133.58 34.618C132.724 31.1982 132.755 27.7662 133.368 24.6684C133.985 21.5615 135.23 18.7919 136.782 16.5131C138.334 14.2251 140.177 12.4247 142.02 11.0476C142.922 10.3237 143.885 9.80234 144.765 9.26867C145.695 8.83008 146.544 8.35469 147.4 8.07252C148.25 7.76888 149.029 7.46831 149.783 7.31495C150.525 7.13093 151.2 6.9469 151.823 6.88863C152.442 6.80582 152.988 6.71381 153.464 6.67087C153.93 6.65553 154.332 6.64326 154.666 6.63406C154.969 6.62793 155.212 6.6218 155.402 6.61873C155.568 6.61873 155.65 6.6218 155.65 6.631C155.65 6.63713 155.568 6.6494 155.402 6.6678C155.212 6.68314 154.973 6.70154 154.672 6.72608C154.338 6.75061 153.942 6.77822 153.476 6.80889C153.003 6.86409 152.467 6.97144 151.853 7.06652C151.237 7.14013 150.574 7.33642 149.841 7.53271C149.099 7.69527 148.332 8.00504 147.498 8.31788C146.655 8.60925 145.823 9.09385 144.909 9.53551C144.051 10.0722 143.106 10.5967 142.226 11.3205C140.425 12.6946 138.628 14.4827 137.122 16.74C135.616 18.9913 134.414 21.7148 133.825 24.7604C133.242 27.7968 133.23 31.1583 134.077 34.4922C134.911 37.8231 136.604 41.111 139.088 43.8928L139.192 44.0093L139.146 44.1596C138.052 47.6929 136.914 51.3795 135.733 55.1888L135.365 54.8299C139.64 53.3486 144.066 51.8089 148.593 50.2386L148.685 50.2048L148.78 50.2355L149.01 50.3091C151.525 51.0912 154.157 51.45 156.724 51.2722C159.285 51.1464 161.803 50.6219 164.1 49.6558C168.682 47.7205 172.489 44.3927 174.767 40.4178C177.12 36.4828 178.077 32.0386 177.844 27.9778C177.69 23.8863 176.329 20.2058 174.497 17.2676C172.673 14.3048 170.332 12.0934 168.044 10.5507C165.756 8.98344 163.493 8.13079 161.634 7.57872C161.162 7.4499 160.717 7.33335 160.3 7.21987C159.877 7.12479 159.475 7.07879 159.104 7.01131C158.365 6.87943 157.736 6.78128 157.221 6.76901C156.73 6.73221 156.344 6.70154 156.049 6.68007C155.785 6.6586 155.65 6.6402 155.65 6.631Z" fill="#77C63A"/>
<path d="M142.349 30.7657L145.83 27.2846L152.544 33.2501L165.723 20.5708L168.955 24.0519L152.047 39.9639L142.349 30.7657Z" fill="#77C63A"/>
</g>
<defs>
<clipPath id="clip0_119_622">
<rect width="360" height="347.626" fill="white"/>
</clipPath>
</defs>
</svg>
