<svg width="360" height="360" viewBox="0 0 360 360" fill="none" xmlns="http://www.w3.org/2000/svg">
<g clip-path="url(#clip0_117_6)">
<path d="M360 3.05176e-05V360H0V3.05176e-05H360Z" fill="white" fill-opacity="0.93"/>
<path d="M279.914 157.505C279.914 223.367 226.522 276.759 160.66 276.759C94.7973 276.759 41.4053 223.367 41.4053 157.505C41.4053 91.6424 94.7973 38.2501 160.66 38.2501C226.522 38.2501 279.914 91.6424 279.914 157.505Z" fill="#77C63A"/>
<path d="M177.877 201.611C177.877 201.611 144.634 241.952 132.877 240.901C121.119 239.85 113.062 220.186 113.062 220.186C113.062 220.186 113.465 219.971 114.149 219.56C117.591 217.53 128.175 210.804 130.652 203.626C133.049 199.731 150.488 171.457 155.794 164.243C161.504 156.488 168.221 156.186 168.221 156.186C172.009 162.414 176.789 167.152 182.715 168.044C183.529 168.166 184.321 168.246 185.077 168.282C185.437 170.816 187.82 183.747 199.433 190.364C199.433 190.364 199.88 181.357 205.834 180.557C205.834 180.557 212.142 177.102 217.347 182.156C217.347 182.156 225.598 173.3 217.347 148.432L211.457 143.103L211.451 143.096L208.751 136.674C208.751 136.674 238.882 135.168 245.852 141.628C252.822 148.079 297.404 207.075 297.404 207.075L232.553 257.424C232.553 257.424 193.234 218.43 177.877 201.611Z" fill="white" fill-opacity="0.93"/>
<path d="M217.347 148.432C225.598 173.3 217.347 182.156 217.347 182.156C212.142 177.102 205.834 180.557 205.834 180.557L214.244 149.728L211.457 143.103L217.347 148.432Z" fill="#CFEEE3"/>
<path d="M197.115 174.805L205.834 180.557C199.88 181.357 199.433 190.364 199.433 190.364C187.82 183.747 185.437 170.816 185.077 168.282C185.811 168.317 186.524 168.311 187.201 168.268L197.115 174.805Z" fill="#CFEEE3"/>
<path d="M177.675 201.286C174.048 196.81 170.421 192.332 166.792 187.855C166.501 187.495 165.994 188.007 166.283 188.364C169.911 192.841 173.539 197.319 177.166 201.795C177.458 202.155 177.965 201.644 177.675 201.286Z" fill="#252936"/>
<path d="M174.496 202.168C171.929 201.066 169.361 199.964 166.792 198.861C166.371 198.68 166.004 199.301 166.429 199.483C168.997 200.586 171.565 201.688 174.133 202.789C174.555 202.97 174.921 202.35 174.496 202.168Z" fill="#252936"/>
<path d="M231.82 222.704C228.555 217.303 225.289 211.901 222.024 206.5C218.774 201.125 215.525 195.749 212.275 190.373C210.434 187.327 208.592 184.281 206.75 181.235C206.511 180.839 205.888 181.2 206.129 181.598C209.394 187 212.659 192.401 215.924 197.802C219.174 203.177 222.424 208.552 225.674 213.929C227.515 216.975 229.357 220.021 231.198 223.066C231.437 223.463 232.061 223.101 231.82 222.704Z" fill="#252936"/>
<path d="M131.177 200.97C131.141 201.855 130.961 202.741 130.652 203.626C128.175 210.804 117.591 217.53 114.149 219.56L113.062 215.579C113.062 215.579 107.482 216.831 103.4 213.296C103.292 213.504 103.119 213.692 102.917 213.822C102.341 214.175 101.614 214.175 100.937 214.117C97.8774 213.844 94.8966 212.67 92.4702 210.776C91.0374 209.66 89.7486 208.213 89.3526 206.442C88.971 204.764 89.6118 202.77 91.1022 201.949C91.0446 201.682 91.0086 201.409 90.9942 201.135C90.9294 199.573 91.7502 198.075 92.8662 196.981C93.8958 195.959 95.1702 195.231 96.4446 194.54C96.459 194.475 96.4734 194.417 96.4878 194.36C96.7974 193.251 97.5894 192.33 98.511 191.646C99.3462 191.026 100.297 190.58 101.247 190.148C96.6318 187.772 92.2038 185.137 92.6502 183.956C93.5502 181.559 103.004 182.408 112.565 185.756C122.12 189.111 125.245 194.108 125.245 194.108C128.218 192.791 131.473 193.05 131.177 200.97Z" fill="#F68164"/>
<path d="M127.674 202.318C125.446 203.274 123.218 204.229 120.99 205.186C119.863 205.669 118.735 206.153 117.607 206.637C116.68 207.035 115.551 207.683 114.511 207.361C113.391 207.014 113.378 205.759 113.808 204.861C114.237 203.962 114.908 203.142 115.528 202.369C116.753 200.843 118.138 199.444 119.647 198.199C121.4 196.756 123.33 195.537 125.375 194.552C125.793 194.351 125.428 193.73 125.011 193.931C121.059 195.834 117.549 198.64 114.836 202.09C113.778 203.436 111.784 205.809 113.373 207.495C114.098 208.263 115.263 208.266 116.204 207.975C117.373 207.613 118.498 207.033 119.621 206.551C122.427 205.347 125.232 204.143 128.038 202.939C128.462 202.757 128.096 202.137 127.674 202.318Z" fill="#252936"/>
<path d="M110.111 195.13C107.317 193.462 104.524 191.794 101.731 190.126C101.332 189.888 100.97 190.511 101.367 190.748L109.747 195.751C110.146 195.99 110.508 195.368 110.111 195.13Z" fill="#252936"/>
<path d="M111.414 208.618C111.338 207.937 111.03 207.307 110.768 206.682C110.481 205.995 110.193 205.307 109.906 204.618C108.584 201.455 107.262 198.291 105.939 195.128C105.764 194.707 105.067 194.892 105.245 195.319C106.315 197.878 107.384 200.436 108.453 202.995C108.993 204.287 109.534 205.58 110.074 206.873C110.402 207.658 111.411 209.723 109.955 210.056C108.934 210.29 107.742 209.27 106.968 208.725C106.073 208.095 105.222 207.406 104.415 206.667C102.814 205.197 101.395 203.533 100.201 201.717C98.8517 199.665 97.7962 197.433 97.0712 195.086C96.9344 194.645 96.2396 194.833 96.3764 195.278C97.7797 199.819 100.403 203.962 103.906 207.176C104.757 207.956 105.66 208.683 106.605 209.347C107.5 209.978 108.574 210.819 109.728 210.801C110.905 210.782 111.537 209.703 111.414 208.618Z" fill="#252936"/>
<path d="M105.364 208.995C105.088 208.63 104.463 208.989 104.743 209.358C105.23 210.004 105.278 210.882 104.707 211.497C104.14 212.108 103.298 212.113 102.573 211.793C101.835 211.468 101.19 210.918 100.56 210.424C99.9037 209.909 99.2593 209.378 98.6278 208.834C96.1208 206.671 93.8161 204.282 91.736 201.706C91.4444 201.346 90.9382 201.858 91.2269 202.215C93.1378 204.581 95.2381 206.79 97.5118 208.811C98.6192 209.795 99.7654 210.74 100.952 211.627C101.995 212.408 103.357 213.152 104.638 212.45C105.884 211.77 106.214 210.12 105.364 208.995Z" fill="#252936"/>
<path d="M214.244 149.728L205.834 180.557L197.115 174.805C206.086 162.06 204.337 146.926 204.337 146.926C204.337 146.926 202.94 167.31 187.201 168.268C186.524 168.311 185.811 168.317 185.077 168.282C184.321 168.245 183.529 168.166 182.715 168.044C176.79 167.152 172.009 162.414 168.222 156.185C160.698 143.816 157.062 125.6 156.075 120.005C164.938 118.846 173.55 115.124 181.959 111.768C184.558 110.732 187.302 109.703 190.088 110.012C192.939 110.322 195.495 112.02 197.411 114.16C199.088 116.039 200.341 118.242 201.522 120.466C201.854 118.436 203.228 112.345 207.836 114.102C208.369 114.303 208.844 114.628 209.254 115.037C213.078 118.897 211.674 130.877 207.339 133.319L208.751 136.674L211.451 143.096L211.458 143.103L214.244 149.728Z" fill="#F68164"/>
<path d="M204.337 146.926C204.337 146.926 206.086 162.06 197.115 174.805L187.201 168.268C202.94 167.31 204.337 146.926 204.337 146.926Z" fill="#252936"/>
<path d="M193.191 86.49C189.75 85.2509 185.891 86.0573 182.535 87.5117C179.18 88.9596 176.113 91.0188 172.743 92.4228C166.587 94.9709 159.502 95.1941 153.21 93.0276C150.877 92.2205 148.328 91.0973 146.06 92.0628C144.302 92.8109 143.324 94.6548 143.137 96.5902C143.136 96.1553 143.158 95.7218 143.23 95.2934C143.426 94.1407 143.932 93.0413 144.852 92.291C145.848 91.4789 147.182 91.2002 148.44 91.2082C149.925 91.2175 151.367 91.6365 152.787 92.0268C154.169 92.4069 155.559 92.7238 156.982 92.9138C162.503 93.6511 168.217 92.7115 173.2 90.221C178.309 87.6672 182.982 83.3904 188.969 83.1996C191.648 83.1146 194.225 84.0478 196.094 85.9925C197.982 87.9538 198.858 90.7142 198.493 93.4092C198.48 93.5021 198.454 93.5928 198.438 93.6849C198.572 90.6149 196.177 87.5722 193.191 86.49ZM208.477 104.151C208.052 101.444 207.39 98.6285 205.582 96.57C203.963 94.7318 201.164 93.7541 198.969 94.6591C199.598 92.2421 199.293 89.599 198.052 87.4159C196.772 85.1645 194.573 83.4638 192.065 82.8108C185.96 81.221 180.384 85.2386 175.427 88.1712C172.777 89.7386 170.012 90.9943 167.006 91.7049C164.078 92.3969 161.04 92.6021 158.044 92.3162C156.522 92.1708 155.021 91.8828 153.544 91.4868C152.071 91.0922 150.6 90.635 149.071 90.5148C146.531 90.3146 143.942 91.2766 142.919 93.7598C141.967 96.0732 142.456 98.7732 143.384 101.011C144.035 102.583 144.958 104.034 146.092 105.296C143.324 105.008 140.398 106.423 139.011 108.853C137.442 111.603 137.996 115.391 140.286 117.58C142.266 119.473 145.131 120.077 147.86 120.28C150.625 120.488 153.361 120.365 156.075 120.005C164.938 118.846 173.55 115.124 181.96 111.768C184.558 110.732 187.302 109.703 190.089 110.012C192.94 110.322 195.495 112.02 197.411 114.16C199.089 116.039 200.341 118.242 201.522 120.466C201.854 118.436 203.229 112.345 207.836 114.102C208.369 114.303 208.844 114.628 209.254 115.037C209.305 111.402 209.046 107.751 208.477 104.151Z" fill="#252936"/>
<path d="M193.329 147.172C193.329 147.172 197.331 154.486 191.225 158.734C185.12 162.99 180.814 156.949 180.814 156.949L193.329 147.172Z" fill="white" fill-opacity="0.93"/>
<path d="M172.513 133.916L180.814 150.433C180.814 150.433 174.061 154.234 172.513 152.032C170.958 149.828 172.513 133.916 172.513 133.916Z" fill="#F36254"/>
<path d="M169.456 137.645C170.093 139.801 169.396 141.907 167.898 142.35C166.401 142.792 164.67 141.403 164.034 139.247C163.397 137.092 164.095 134.986 165.592 134.544C167.09 134.101 168.82 135.49 169.456 137.645Z" fill="#252936"/>
<path d="M186.975 131.735C187.613 133.891 186.915 135.997 185.417 136.44C183.92 136.882 182.19 135.493 181.553 133.337C180.916 131.182 181.614 129.076 183.111 128.634C184.609 128.191 186.34 129.58 186.975 131.735Z" fill="#252936"/>
<path d="M165.816 128.923C164.451 129.249 163.134 129.781 161.908 130.461C161.249 130.827 161.021 131.825 161.445 132.445C161.905 133.115 162.723 133.299 163.429 132.908C163.733 132.739 164.045 132.588 164.36 132.442C165.096 132.128 165.853 131.871 166.632 131.685C167.366 131.51 167.849 130.605 167.605 129.896C167.339 129.125 166.602 128.735 165.816 128.923Z" fill="#252936"/>
<path d="M186.336 124.08C186.034 123.82 185.717 123.728 185.324 123.689C183.58 123.521 181.76 123.792 180.139 124.455C179.775 124.604 179.477 124.79 179.282 125.147C179.113 125.458 179.049 125.904 179.166 126.244C179.4 126.921 180.208 127.522 180.955 127.217C181.626 126.942 182.322 126.751 183.034 126.623C183.811 126.52 184.594 126.495 185.376 126.57C185.723 126.603 186.17 126.359 186.399 126.117C186.636 125.864 186.812 125.455 186.79 125.104C186.765 124.726 186.631 124.335 186.336 124.08Z" fill="#252936"/>
<path d="M198.775 82.5487C198.591 82.1246 197.971 82.4904 198.153 82.9123C199.491 86.0119 200.154 89.3693 200.12 92.7432C200.115 93.2069 200.835 93.2069 200.84 92.7432C200.876 89.2346 200.165 85.7693 198.775 82.5487Z" fill="#252936"/>
<path d="M202.072 88.7572C201.765 90.0237 201.458 91.2895 201.151 92.5552C201.042 93.0052 201.735 93.1975 201.845 92.7468C202.152 91.481 202.459 90.2145 202.766 88.9488C202.875 88.4988 202.182 88.3065 202.072 88.7572Z" fill="#252936"/>
<path d="M197.179 301.997V306.599H132.941L83.9736 279.98V275.84L133.877 301.997H197.179Z" fill="#7E8182"/>
<path d="M197.179 301.998H133.877L83.9736 275.84H147.276L197.179 301.998Z" fill="#AAACAB"/>
<path d="M140.576 299.987H132.781L126.636 296.765H134.43L140.576 299.987Z" fill="#7E8182"/>
<path d="M132.338 295.683H124.543L118.397 292.461H126.193L132.338 295.683Z" fill="#7E8182"/>
<path d="M125.368 291.547H117.572L111.427 288.326H119.223L125.368 291.547Z" fill="#7E8182"/>
<path d="M117.13 287.243H109.335L103.189 284.023H110.984L117.13 287.243Z" fill="#7E8182"/>
<path d="M149.985 299.361H142.188L136.043 296.14H143.839L149.985 299.361Z" fill="#7E8182"/>
<path d="M143.014 295.226H135.219L129.073 292.004H136.868L143.014 295.226Z" fill="#7E8182"/>
<path d="M134.776 290.922H126.981L120.835 287.7H128.63L134.776 290.922Z" fill="#7E8182"/>
<path d="M151.685 294.458H143.891L137.745 291.237H145.54L151.685 294.458Z" fill="#7E8182"/>
<path d="M144.715 290.323H136.92L130.774 287.101H138.57L144.715 290.323Z" fill="#7E8182"/>
<path d="M136.477 286.019H128.682L122.536 282.797H130.332L136.477 286.019Z" fill="#7E8182"/>
<path d="M180.401 300.375H172.606L166.46 297.155H174.256L180.401 300.375Z" fill="#7E8182"/>
<path d="M172.163 296.072H164.368L158.222 292.851H166.018L172.163 296.072Z" fill="#7E8182"/>
<path d="M165.193 291.937H157.397L151.252 288.715H159.047L165.193 291.937Z" fill="#7E8182"/>
<path d="M156.955 287.632H149.16L143.014 284.412H150.81L156.955 287.632Z" fill="#7E8182"/>
<path d="M189.809 299.75H182.014L175.869 296.529H183.664L189.809 299.75Z" fill="#7E8182"/>
<path d="M182.838 295.615H175.044L168.898 292.394H176.694L182.838 295.615Z" fill="#7E8182"/>
<path d="M174.601 291.311H166.805L160.66 288.089H168.456L174.601 291.311Z" fill="#7E8182"/>
<path d="M237.621 324.104H174.319L141.997 307.128H205.3L237.621 324.104Z" fill="#CCDDD8"/>
<path d="M193.719 322.067H175.295L165.889 317.126H184.312L193.719 322.067Z" fill="#55C6C2"/>
<path d="M199.471 321.756C199.359 321.756 199.244 321.729 199.137 321.674L177.291 310.2C176.939 310.015 176.804 309.58 176.988 309.227C177.174 308.875 177.609 308.742 177.961 308.924L199.806 320.398C200.158 320.583 200.294 321.018 200.109 321.371C199.98 321.615 199.729 321.756 199.471 321.756Z" fill="#AAACAB"/>
<path d="M206.82 321.333C206.708 321.333 206.593 321.306 206.486 321.251L184.64 309.777C184.288 309.592 184.153 309.157 184.337 308.804C184.523 308.452 184.958 308.319 185.31 308.502L207.155 319.975C207.508 320.16 207.644 320.595 207.459 320.948C207.329 321.193 207.078 321.333 206.82 321.333Z" fill="#AAACAB"/>
<path d="M216.812 321.967C216.7 321.967 216.585 321.941 216.478 321.885L194.633 310.411C194.281 310.226 194.144 309.791 194.33 309.439C194.515 309.087 194.95 308.953 195.302 309.136L217.148 320.609C217.5 320.795 217.635 321.229 217.451 321.582C217.321 321.827 217.071 321.967 216.812 321.967Z" fill="#AAACAB"/>
<path d="M224.161 321.545C224.049 321.545 223.934 321.518 223.827 321.463L201.982 309.989C201.63 309.804 201.494 309.369 201.679 309.016C201.864 308.664 202.299 308.531 202.651 308.714L224.497 320.187C224.849 320.372 224.984 320.807 224.8 321.16C224.67 321.404 224.42 321.545 224.161 321.545Z" fill="#AAACAB"/>
<path d="M290.164 130.518L302.484 124.104C307.397 125.392 312.733 125.319 317.918 123.606C332.232 118.877 340.002 103.44 335.272 89.1253C330.543 74.811 315.106 67.0407 300.792 71.7697C286.485 76.4965 278.715 91.934 283.445 106.248C284.812 110.388 287.082 113.987 289.958 116.888L290.164 130.518Z" fill="#77C63A"/>
<path d="M317.05 116.631V118.418H303.505V113.31L317.05 116.631Z" fill="#7E8182"/>
<path d="M305.106 118.418H315.509C315.509 118.418 315.263 120.57 310.274 120.57C305.293 120.57 305.106 118.418 305.106 118.418Z" fill="#AAACAB"/>
<path d="M317.05 111.768V116.631L303.505 113.31V111.768H304.476H316.386H317.05Z" fill="#AAACAB"/>
<path d="M326.403 90.3457C326.403 96.231 323.221 101.379 318.478 104.149L316.386 111.769H304.476L302.389 104.149C297.647 101.379 294.458 96.231 294.458 90.3457C294.458 81.5242 301.612 74.3761 310.434 74.3761C319.255 74.3761 326.403 81.5242 326.403 90.3457Z" fill="#EED54F"/>
<path d="M304.02 94.05C303.96 93.6684 303.381 93.8304 303.44 94.2091C304.333 99.9324 305.225 105.656 306.117 111.38C306.176 111.761 306.756 111.599 306.697 111.22C305.804 105.497 304.912 99.7733 304.02 94.05Z" fill="white" fill-opacity="0.93"/>
<path d="M316.687 93.4682C315.724 99.4932 314.761 105.518 313.798 111.544C313.737 111.922 314.317 112.085 314.378 111.704C315.341 105.678 316.304 99.653 317.267 93.6281C317.327 93.2494 316.748 93.0866 316.687 93.4682Z" fill="white" fill-opacity="0.93"/>
<path d="M312.224 96.948C311.576 95.5138 311.365 93.785 311.751 92.2493C311.838 91.9008 312 91.4868 312.378 91.3723C312.747 91.26 312.996 91.5747 313.129 91.8771C313.402 92.497 313.386 93.2811 313.334 93.9435C313.246 95.0407 312.877 96.1243 312.276 97.0517C312.259 97.0178 312.24 96.9833 312.224 96.948ZM306.989 93.3235C307.044 92.939 307.119 92.479 307.423 92.2061C307.789 91.8756 308.204 92.0909 308.364 92.502C308.513 92.8814 308.454 93.3408 308.442 93.7382C308.429 94.1609 308.413 94.585 308.372 95.0062C308.294 95.8011 308.084 96.691 307.667 97.4211C307.035 96.1675 306.789 94.711 306.989 93.3235ZM318.313 97.8207C317.862 99.0663 316.464 99.9079 315.15 99.6559C314.038 99.4428 313.191 98.6191 312.611 97.6702C313.153 96.8904 313.536 95.9839 313.742 95.1451C313.96 94.2588 314.015 93.3343 313.888 92.4307C313.79 91.7424 313.467 90.864 312.674 90.7567C311.745 90.6315 311.268 91.566 311.118 92.3314C310.924 93.3192 310.925 94.3366 311.102 95.3273C311.237 96.089 311.496 96.8767 311.874 97.5996C311.795 97.6975 311.717 97.7962 311.632 97.8891C311.116 98.4514 310.463 98.9741 309.67 99.018C308.91 99.0598 308.382 98.586 307.994 97.9985C308.395 97.4211 308.674 96.7385 308.817 96.0595C309.029 95.0609 309.118 93.9499 309.049 92.9318C308.997 92.1398 308.448 91.2096 307.519 91.4767C306.564 91.751 306.405 92.9139 306.343 93.7505C306.271 94.7074 306.39 95.6873 306.683 96.601C306.829 97.0582 307.022 97.5391 307.269 97.9841C306.88 98.4348 306.373 98.7653 305.717 98.8747C303.908 99.1757 303.226 97.3231 302.874 95.9162C302.78 95.5411 302.201 95.7002 302.294 96.0761C302.685 97.637 303.445 99.5126 305.351 99.5054C306.268 99.5018 307.017 99.0986 307.592 98.4946C307.737 98.6933 307.898 98.8776 308.077 99.0374C308.771 99.6545 309.706 99.7654 310.559 99.4212C311.195 99.1649 311.747 98.7228 312.213 98.1835C312.767 99.0274 313.514 99.7243 314.464 100.084C316.238 100.756 318.257 99.7351 318.892 97.9805C319.025 97.6162 318.444 97.4592 318.313 97.8207Z" fill="white" fill-opacity="0.93"/>
<path d="M136.084 134.554L123.268 136.541C120.283 140.227 116.23 143.123 111.38 144.702C97.9949 149.06 83.6115 141.743 79.2526 128.357C74.8944 114.972 82.2125 100.588 95.5973 96.2294C108.976 91.8741 123.36 99.1915 127.718 112.576C128.979 116.448 129.261 120.411 128.702 124.184L136.084 134.554Z" fill="white" fill-opacity="0.93"/>
<path d="M123.742 112.288L99.8762 136.154L86.9011 123.171L93.1918 116.881L99.8762 123.565L117.444 105.997L123.742 112.288Z" fill="#55C6C2"/>
<path d="M272.96 191.287L256.702 209.532L252.549 220.743L251.698 210.23L249.992 197.421L250.165 195.052L251.138 181.668C248.438 181.92 245.809 181.848 243.34 181.401C233.62 179.674 226.203 172.251 225.274 156.187C224.706 146.402 225.915 139.03 227.55 133.716C229.947 125.911 233.281 122.563 233.281 122.563C233.281 122.563 245.442 142.932 261.555 145.185C261.555 145.185 264.507 138.223 269.109 140.275C273.716 142.327 273.716 156.18 266.415 157.995C265.458 167.578 266.854 177.399 270.454 186.334C271.146 188.04 271.945 189.754 272.96 191.287Z" fill="#F68164"/>
<path d="M257.062 150.989C260.662 150.989 263.578 153.905 263.578 157.505C263.578 161.105 260.662 164.021 257.062 164.021C253.462 164.021 250.546 161.105 250.546 157.505C250.546 153.905 253.462 150.989 257.062 150.989Z" fill="#F36254"/>
<path d="M259.251 180.063L250.625 188.674L251.137 181.668C253.786 181.43 256.515 180.876 259.251 180.063Z" fill="#252936"/>
<path d="M250.626 188.674L250.165 195.052C250.165 195.052 240.82 199.243 236.535 209.143C235.606 206.134 235.707 202.843 236.377 199.755C237.133 196.299 238.558 193.036 239.998 189.819C241.23 187.061 242.482 184.289 243.34 181.401C245.809 181.848 248.437 181.92 251.137 181.668L250.626 188.674Z" fill="#252936"/>
<path d="M235.182 148.282L238.889 163.899C238.889 163.899 232.431 165.85 231.582 164.295C230.732 162.747 235.182 148.282 235.182 148.282Z" fill="#F36254"/>
<path d="M326.023 209.392C325.323 198.961 320.275 189.227 314.453 180.495C310.488 174.552 306.102 168.858 302.201 162.885C304.975 165.631 307.795 168.336 310.501 171.143C316.217 177.075 321.631 183.698 324.384 191.573C326.375 197.269 326.866 203.429 326.023 209.392ZM246.977 139.319C244.952 137.843 243.106 136.133 241.361 134.34C239.651 132.584 237.97 130.766 236.565 128.752C235.508 127.235 234.616 125.584 234.082 123.819C236.566 127.58 244.649 138.803 255.323 143.393C252.321 142.623 249.489 141.149 246.977 139.319ZM326.056 194.688C324.126 186.792 319.439 179.96 314.101 173.962C309.779 169.107 304.976 164.716 300.421 160.086C298.994 157.763 297.659 155.385 296.469 152.925C292.004 143.716 289.664 133.587 285.071 124.45C280.469 115.305 272.758 106.795 262.649 105.219C247.803 102.9 233.633 116.062 218.866 113.29C218.283 120.799 221.38 128.518 226.995 133.543L227.549 133.716C229.607 127.02 232.346 123.612 233.085 122.777C233.973 127.199 237.044 130.835 240.082 134.047C243.634 137.804 247.634 141.295 252.49 143.233C254.586 144.07 256.814 144.587 259.065 144.679C259.885 144.89 260.713 145.068 261.555 145.185C261.555 145.185 264.507 138.223 269.109 140.275C273.716 142.327 273.716 156.18 266.415 157.995C265.457 167.578 266.854 177.399 270.454 186.334C271.146 188.04 271.945 189.754 272.96 191.287C273.586 192.245 274.3 193.13 275.127 193.907V193.915C275.422 194.189 275.732 194.455 276.063 194.707C282.392 199.539 291.716 196.643 299.169 199.445C306.066 202.036 310.342 209.295 311.466 216.581C312.596 223.867 311.127 231.276 309.673 238.505L309.802 238.547C309.946 238.116 310.083 237.676 310.22 237.245C319.893 233.821 325.624 223.333 326.084 213.015C327.475 207.011 327.521 200.681 326.056 194.688Z" fill="#252936"/>
<path d="M232.466 148.418C232.466 150.666 231.199 152.488 229.638 152.488C228.077 152.488 226.812 150.666 226.812 148.418C226.812 146.17 228.077 144.348 229.638 144.348C231.199 144.348 232.466 146.17 232.466 148.418Z" fill="#252936"/>
<path d="M247.118 147.834C247.118 150.082 245.853 151.904 244.292 151.904C242.73 151.904 241.464 150.082 241.464 147.834C241.464 145.587 242.73 143.765 244.292 143.765C245.853 143.765 247.118 145.587 247.118 147.834Z" fill="#252936"/>
<path d="M231.445 139.021C230.045 138.947 228.63 139.085 227.262 139.39C226.526 139.553 226.025 140.446 226.256 141.161C226.507 141.934 227.239 142.343 228.028 142.167C228.367 142.091 228.709 142.035 229.053 141.984C229.846 141.891 230.646 141.859 231.445 141.901C232.199 141.942 232.919 141.211 232.885 140.461C232.849 139.648 232.253 139.065 231.445 139.021Z" fill="#252936"/>
<path d="M248.673 140.311C248.457 139.977 248.18 139.798 247.813 139.65C246.189 138.994 244.366 138.738 242.624 138.915C242.233 138.954 241.894 139.049 241.606 139.337C241.356 139.586 241.168 139.996 241.184 140.355C241.216 141.07 241.821 141.876 242.624 141.795C243.345 141.722 244.067 141.735 244.786 141.814C245.562 141.935 246.318 142.133 247.047 142.427C247.37 142.557 247.87 142.45 248.157 142.281C248.455 142.107 248.74 141.764 248.818 141.421C248.902 141.052 248.884 140.639 248.673 140.311Z" fill="#252936"/>
<path d="M249.765 169.183C250.809 171.763 249.827 174.594 247.573 175.507C245.318 176.419 242.645 175.067 241.601 172.488C240.556 169.908 241.538 167.077 243.793 166.165C246.047 165.253 248.721 166.604 249.765 169.183Z" fill="#E85B41"/>
<path d="M250.546 165.598C250.546 165.598 252.7 171.754 246.494 173.805C241.438 175.476 239.314 172.156 238.746 171.019L250.546 165.598Z" fill="white" fill-opacity="0.93"/>
<path d="M309.673 238.505L309.802 238.548C307.801 244.761 305.526 250.996 303.229 256.879V256.887C296.129 275.059 288.814 289.884 288.591 290.323C281.578 280.639 268.517 274.21 264.277 272.301C263.406 271.912 262.909 271.711 262.909 271.711L260.237 279.718C260.461 279.927 260.691 280.135 260.907 280.336L236.693 283.563V273.583C236.693 273.583 236.096 272.287 235.211 270.228C234.001 267.42 232.251 263.187 230.789 258.924C229.184 254.244 227.924 249.528 228.075 246.627C228.478 239.152 244.851 210.331 244.851 210.331C244.873 214.485 245.794 217.841 245.794 217.841C245.866 217.395 246.032 216.919 246.277 216.436C246.349 216.747 248.667 226.308 252.994 233.551L262.211 217.841C262.592 218.827 262.966 219.929 263.305 221.139C263.305 221.139 273.529 204.607 275.127 193.915C275.422 194.189 275.732 194.455 276.063 194.707C282.392 199.539 291.716 196.644 299.169 199.445C306.066 202.036 310.342 209.295 311.466 216.581C312.596 223.867 311.127 231.276 309.673 238.505Z" fill="#77C63A"/>
<path d="M303.229 256.887L307.542 294.794H288.116L289.729 291.994C289.376 291.425 288.994 290.87 288.591 290.323C288.814 289.883 296.13 275.059 303.229 256.887Z" fill="#77C63A"/>
<path d="M288.591 290.323C288.994 290.87 289.376 291.425 289.729 291.994L288.116 294.794L279.987 308.943C279.987 308.943 277.129 295.5 260.907 280.336C260.691 280.135 260.461 279.927 260.238 279.718L262.909 271.711C262.909 271.711 263.406 271.912 264.277 272.301C268.518 274.21 281.578 280.639 288.591 290.323Z" fill="#94B8BE"/>
<path d="M279.987 308.943C279.987 308.943 261.389 309.274 209.398 306.271C209.398 306.271 197.252 314.681 192.32 314.148C187.381 313.615 177.639 304.471 175.234 300.67C172.837 296.868 179.108 291.194 179.108 291.194C179.108 291.194 179.173 288.329 183.111 286.659C184.869 285.916 189.685 286.018 194.494 286.356C200.485 286.788 206.461 287.594 206.461 287.594L220.926 285.665L236.693 283.563L260.907 280.336C277.129 295.5 279.987 308.943 279.987 308.943Z" fill="#F68164"/>
<path d="M275.127 193.908V193.915C273.529 204.607 263.305 221.139 263.305 221.139C262.966 219.929 262.592 218.827 262.211 217.841C259.741 211.447 256.702 209.532 256.702 209.532L272.96 191.287C273.586 192.245 274.3 193.13 275.127 193.908Z" fill="white" fill-opacity="0.93"/>
<path d="M262.211 217.841L252.994 233.551C248.667 226.307 246.349 216.747 246.277 216.436C246.277 216.43 246.277 216.43 246.277 216.43C247.724 213.507 251.698 210.23 251.698 210.23L252.549 220.743L256.702 209.532C256.702 209.532 259.741 211.447 262.211 217.841Z" fill="#CFEEE3"/>
<path d="M252.541 268.788V257.981H243.512V268.788H252.541ZM244.822 255.77H256.054L256.501 278.781H239.891L239.552 255.77H244.822Z" fill="white" fill-opacity="0.93"/>
<path d="M252.541 257.981V268.787H243.512V257.981H252.541Z" fill="#55C6C2"/>
<path d="M249.992 197.421L251.698 210.23C251.698 210.23 247.724 213.507 246.277 216.43C246.277 216.43 246.277 216.43 246.277 216.436C246.032 216.919 245.866 217.395 245.794 217.841C245.794 217.841 244.873 214.485 244.851 210.331C244.83 205.918 245.816 200.59 249.992 197.421Z" fill="white" fill-opacity="0.93"/>
<path d="M247.717 252.264L250.489 255.77H244.822L247.717 252.264Z" fill="#AAACAB"/>
<path d="M236.535 209.143C240.82 199.243 250.165 195.052 250.165 195.052L249.992 197.421C245.816 200.59 244.83 205.918 244.851 210.331C244.851 210.331 228.478 239.152 228.075 246.627C227.924 249.528 229.184 254.244 230.79 258.924L229.811 259.169L222.783 255.756L223.006 255.303C223.006 255.303 231.949 223.608 235.549 211.8C235.83 210.871 236.161 209.985 236.535 209.143Z" fill="#77C63A"/>
<path d="M236.694 273.583V283.563L220.926 285.665L172.936 285.565C164.815 289.058 160.615 289.244 157.476 287.682C156.195 287.769 151.388 288.3 150.106 288.379C149.984 289.761 149.559 290.992 148.414 290.992C145.815 290.992 142.914 285.19 142.914 285.19C142.914 285.19 142.114 290.992 139.508 289.596C136.909 288.192 137.607 280.25 137.607 280.25C137.607 280.25 131.703 286.039 130.904 283.858C130.105 281.669 134.007 271.279 143.713 270.379C153.418 269.479 175.335 273.381 175.335 273.381L218.802 266.11L235.211 270.227C236.096 272.287 236.694 273.583 236.694 273.583Z" fill="#F68164"/>
<path d="M235.211 270.228L218.802 266.11C217.794 258.039 220.472 254.632 220.472 254.632L222.783 255.756L230.79 258.924C232.251 263.187 234.001 267.42 235.211 270.228Z" fill="#9ABCC2"/>
<path d="M202.181 270.144C203.21 270.85 203.491 272.261 202.864 273.341C197.788 272.686 196.579 270.374 196.579 270.374C196.996 269.669 197.824 268.834 198.639 268.79C199.632 268.747 200.927 269.287 202.181 270.144Z" fill="#F2564A"/>
<path d="M202.864 273.341L199.797 278.633C195.759 278.05 193.599 275.378 193.599 275.378L196.579 270.374C196.579 270.374 197.788 272.686 202.864 273.341Z" fill="#F5776B"/>
<path d="M199.797 278.633L195.016 286.884L186.852 286.711L193.599 275.378C193.599 275.378 195.759 278.05 199.797 278.633Z" fill="#55C6C2"/>
<path d="M278.464 221.805C276.488 228.028 274.512 234.251 272.535 240.473C270.569 246.667 268.602 252.86 266.635 259.055C265.519 262.566 264.405 266.077 263.29 269.587C263.149 270.03 263.844 270.22 263.984 269.779C265.961 263.557 267.936 257.334 269.912 251.111C271.879 244.917 273.846 238.724 275.813 232.529C276.928 229.018 278.043 225.508 279.158 221.997C279.299 221.554 278.603 221.365 278.464 221.805Z" fill="#252936"/>
<path d="M302.872 257.91C298.732 266.142 294.929 274.542 291.474 283.084C290.5 285.494 289.554 287.914 288.635 290.345C288.471 290.779 289.166 290.966 289.329 290.536C292.565 281.976 296.147 273.547 300.07 265.278C301.184 262.93 302.325 260.595 303.494 258.273C303.701 257.861 303.08 257.496 302.872 257.91Z" fill="#252936"/>
<path d="M243.87 211.166C240.446 217.514 236.939 223.825 233.616 230.226C230.616 235.999 227.968 242.196 227.991 248.817C228.004 252.259 228.753 255.703 230.461 258.71C230.689 259.114 231.312 258.751 231.083 258.347C227.975 252.875 228.255 246.205 230.046 240.352C231.013 237.195 232.394 234.186 233.895 231.252C235.464 228.187 237.134 225.171 238.769 222.141C240.676 218.604 242.585 215.067 244.492 211.529C244.712 211.122 244.091 210.758 243.87 211.166Z" fill="#252936"/>
<path d="M262.176 218.682C258.286 227.481 254.395 236.28 250.505 245.08C249.558 247.224 248.61 249.368 247.663 251.511C246.205 242.742 245.583 233.837 245.825 224.95C245.896 222.312 246.044 219.676 246.265 217.047C246.304 216.585 245.584 216.588 245.545 217.047C244.76 226.398 244.916 235.822 246.023 245.141C246.325 247.692 246.7 250.232 247.14 252.763C247.137 252.828 247.154 252.889 247.182 252.944C247.22 253.061 247.303 253.125 247.401 253.143C247.545 253.2 247.71 253.172 247.793 252.986C247.795 252.98 247.798 252.974 247.801 252.968C247.823 252.933 247.843 252.895 247.851 252.853C251.722 244.097 255.593 235.342 259.463 226.588C260.574 224.073 261.686 221.559 262.797 219.045C262.983 218.625 262.363 218.259 262.176 218.682Z" fill="#252936"/>
<path d="M236.185 283.734C231.081 284.234 225.977 284.735 220.874 285.235C220.417 285.281 220.412 286.001 220.874 285.955C225.977 285.455 231.081 284.954 236.185 284.454C236.642 284.41 236.647 283.689 236.185 283.734Z" fill="#252936"/>
<path d="M164.989 285.071C160.695 286.43 156.261 287.334 151.774 287.733C151.26 287.778 150.745 287.818 150.229 287.851C149.797 287.878 149.349 287.929 148.92 287.84C148.592 287.772 148.226 287.616 148.248 287.22C148.275 286.728 148.901 286.269 149.224 285.962C150.701 284.563 152.285 283.279 153.96 282.126C155.855 280.821 157.863 279.686 159.953 278.726C160.373 278.533 160.008 277.911 159.589 278.104C155.523 279.973 151.775 282.516 148.545 285.615C147.94 286.196 147.147 287.057 147.728 287.931C148.144 288.558 149.033 288.629 149.714 288.601C152.149 288.5 154.591 288.186 156.991 287.769C159.763 287.288 162.498 286.615 165.179 285.765C165.62 285.626 165.432 284.931 164.989 285.071Z" fill="#252936"/>
<path d="M143.279 285.099C142.332 281.92 142.32 278.536 143.245 275.35C143.374 274.904 142.68 274.714 142.551 275.159C141.591 278.463 141.602 281.993 142.585 285.29C142.717 285.733 143.412 285.545 143.279 285.099Z" fill="#252936"/>
<path d="M140.569 274.186C140.386 274.076 140.195 274.162 140.077 274.316C138.736 276.067 137.822 278.127 137.418 280.295C137.334 280.748 138.028 280.942 138.113 280.486C138.506 278.369 139.39 276.389 140.699 274.679C140.818 274.523 140.722 274.277 140.569 274.186Z" fill="#252936"/>
<path d="M251.406 210.208C249.326 212.267 247.373 214.45 245.559 216.747C245.274 217.106 245.78 217.619 246.068 217.256C247.882 214.96 249.835 212.776 251.915 210.717C252.245 210.39 251.736 209.881 251.406 210.208Z" fill="#252936"/>
<path d="M263.416 220.398C262.195 216.288 260.073 212.49 257.217 209.292C256.907 208.945 256.4 209.457 256.708 209.802C259.48 212.905 261.537 216.6 262.722 220.59C262.853 221.033 263.549 220.845 263.416 220.398Z" fill="#252936"/>
<path d="M253.123 221.342C253.102 220.881 252.382 220.878 252.403 221.342C252.539 224.534 252.675 227.726 252.812 230.918C252.832 231.379 253.552 231.381 253.532 230.918C253.395 227.726 253.259 224.534 253.123 221.342Z" fill="#252936"/>
<path d="M255.728 223.179C255.529 222.769 254.992 222.546 254.565 222.712C254.437 222.763 254.322 222.841 254.221 222.934C254.208 222.944 254.192 222.948 254.182 222.961C254.161 222.985 254.151 223.015 254.133 223.04C254.099 223.083 254.055 223.116 254.03 223.165C254.017 223.19 254.017 223.219 254.005 223.247C253.995 223.271 253.992 223.296 253.983 223.32C253.954 223.408 253.934 223.496 253.932 223.589C253.932 223.6 253.926 223.608 253.926 223.618C253.926 223.644 253.938 223.667 253.94 223.693C253.945 223.752 253.938 223.811 253.954 223.87C253.961 223.892 253.976 223.91 253.985 223.932C253.999 223.975 254.023 224.012 254.043 224.053C254.076 224.117 254.11 224.178 254.156 224.233C254.167 224.245 254.171 224.261 254.181 224.273C254.206 224.299 254.241 224.314 254.269 224.338C254.305 224.369 254.333 224.409 254.373 224.433C254.389 224.444 254.411 224.444 254.426 224.453C254.473 224.477 254.523 224.488 254.573 224.505C254.632 224.525 254.688 224.551 254.75 224.558C254.979 224.591 255.216 224.55 255.402 224.416C255.592 224.279 255.733 224.092 255.796 223.865C255.861 223.633 255.833 223.394 255.728 223.179Z" fill="#252936"/>
<path d="M72.0943 286.91L69.9558 304.536L106.784 302.267V309.612L53.1438 315.616L38.6001 304.536L55.1891 265.274L61.1505 251.163L75.9607 255.036L74.1031 270.379L72.0943 286.91Z" fill="#7E8182"/>
<path d="M91.7718 153.689L116.662 283.39H105.985L80.9646 153.689H91.7718Z" fill="#7E8182"/>
<path d="M106.784 302.268L69.9558 304.536L72.0943 286.91L106.784 302.268Z" fill="#AAACAB"/>
<path d="M80.9647 153.689L105.985 283.39L74.1031 270.379L75.9607 255.036L61.1505 251.163L55.1891 265.274L52.5465 264.151L23.7178 153.689H80.9647Z" fill="#AAACAB"/>
<path d="M100.731 254.569C99.3506 246.449 97.9336 238.334 96.4806 230.228C95.0205 222.079 93.5236 213.938 91.9907 205.803C90.465 197.709 88.9026 189.621 87.305 181.541C85.7073 173.46 84.0729 165.388 82.4032 157.321C82.1944 156.313 81.9849 155.305 81.7754 154.297C81.6803 153.844 80.9862 154.035 81.0806 154.488C82.7596 162.553 84.4026 170.624 86.0097 178.703C87.6167 186.781 89.1878 194.867 90.7221 202.959C92.265 211.092 93.7706 219.232 95.2401 227.379C96.7024 235.485 98.128 243.598 99.5176 251.716C100.907 259.835 102.26 267.959 103.577 276.09C103.742 277.107 103.906 278.123 104.069 279.14C104.143 279.596 104.837 279.403 104.764 278.949C103.455 270.816 102.112 262.69 100.731 254.569Z" fill="#252936"/>
<path d="M71.5143 254.728C69.3239 262.536 67.0455 270.318 64.6776 278.075C62.3185 285.802 59.8714 293.504 57.3364 301.175C55.9026 305.515 54.4401 309.845 52.9509 314.167C52.7993 314.605 53.4948 314.794 53.6447 314.358C56.2876 306.691 58.8436 298.994 61.3108 291.27C63.7689 283.573 66.139 275.849 68.4208 268.097C69.7117 263.714 70.9737 259.32 72.2088 254.92C72.3333 254.472 71.6391 254.282 71.5143 254.728Z" fill="#252936"/>
</g>
<defs>
<clipPath id="clip0_117_6">
<rect width="360" height="360" fill="white"/>
</clipPath>
</defs>
</svg>
